<svg width="74" height="85" viewBox="0 0 74 85" fill="none" xmlns="http://www.w3.org/2000/svg">
<path d="M62.1366 78.8405V12.1835C62.1366 10.0756 60.4253 8.36426 58.3174 8.36426H5.60053C3.49257 8.36426 1.78125 10.0756 1.78125 12.1835V78.8405C1.78125 80.9485 3.49257 82.6598 5.60053 82.6598H58.3174C60.4253 82.6598 62.1366 80.9529 62.1366 78.8405Z" fill="white"/>
<path d="M58.3187 84.4419H5.60191C2.51351 84.4419 0 81.9284 0 78.84V12.183C0 9.09456 2.51351 6.58105 5.60191 6.58105H58.3143C61.4027 6.58105 63.9162 9.09456 63.9162 12.183V78.84C63.9207 81.9284 61.4071 84.4419 58.3187 84.4419ZM5.60191 10.1463C4.47886 10.1463 3.56526 11.0599 3.56526 12.183V78.84C3.56526 79.963 4.47886 80.8766 5.60191 80.8766H58.3187C59.4418 80.8766 60.3554 79.963 60.3554 78.84V12.183C60.3554 11.0599 59.4418 10.1463 58.3187 10.1463H5.60191Z" fill="#222222"/>
<path d="M16.2641 31.3492C15.7204 31.3492 15.2034 31.0996 14.8647 30.6673L11.0588 25.832C10.4483 25.0565 10.582 23.9379 11.3574 23.3274C12.1329 22.7168 13.2515 22.8505 13.862 23.626L16.1571 26.5406L20.3374 20.3504C20.89 19.5348 21.9953 19.3209 22.8108 19.8691C23.6264 20.4217 23.8403 21.5269 23.2921 22.3425L17.7437 30.5648C17.4228 31.0372 16.9014 31.3269 16.331 31.3492C16.3087 31.3492 16.2864 31.3492 16.2641 31.3492Z" fill="#FFE352"/>
<path d="M16.2641 46.0172C15.7204 46.0172 15.2034 45.7676 14.8647 45.3353L11.0588 40.4999C10.4483 39.7245 10.582 38.6059 11.3574 37.9953C12.1329 37.3848 13.2515 37.5185 13.862 38.2939L16.1571 41.2085L20.3374 35.0183C20.89 34.2028 21.9953 33.9889 22.8108 34.537C23.6264 35.0897 23.8403 36.1949 23.2921 37.0104L17.7437 45.2284C17.4228 45.7008 16.9014 45.9904 16.331 46.0127C16.3087 46.0172 16.2864 46.0172 16.2641 46.0172Z" fill="#FFE352"/>
<path d="M16.2641 60.6773C15.7204 60.6773 15.2034 60.4278 14.8647 59.9955L11.0588 55.1601C10.4483 54.3846 10.582 53.266 11.3574 52.6555C12.1329 52.0449 13.2515 52.1786 13.862 52.9541L16.1571 55.8687L20.3374 49.6785C20.89 48.863 21.9953 48.649 22.8108 49.1972C23.6264 49.7498 23.8403 50.855 23.2921 51.6706L17.7437 59.893C17.4228 60.3654 16.9014 60.655 16.331 60.6773C16.3087 60.6773 16.2864 60.6773 16.2641 60.6773Z" fill="#FFE352"/>
<path d="M53.2592 23.1326H29.3764C28.3915 23.1326 27.5938 22.3349 27.5938 21.35C27.5938 20.3651 28.3915 19.5674 29.3764 19.5674H53.2547C54.2396 19.5674 55.0373 20.3651 55.0373 21.35C55.0418 22.3349 54.2441 23.1326 53.2592 23.1326Z" fill="#222222"/>
<path d="M48.8828 31.3494H29.3764C28.3915 31.3494 27.5938 30.5517 27.5938 29.5668C27.5938 28.5819 28.3915 27.7842 29.3764 27.7842H48.8828C49.8677 27.7842 50.6654 28.5819 50.6654 29.5668C50.6654 30.5517 49.8677 31.3494 48.8828 31.3494Z" fill="#222222"/>
<path d="M41.3573 62.2885L71.4704 10.1332C72.1611 8.93436 71.7511 7.38793 70.5478 6.69716L63.3728 2.557C62.1739 1.86177 60.6275 2.27624 59.9367 3.47951L29.8281 55.6303" fill="white"/>
<path d="M41.3578 64.0719C41.0548 64.0719 40.7473 63.9962 40.4665 63.8313C39.6153 63.3411 39.3212 62.2492 39.8158 61.398L69.9289 9.24269C70.0581 9.01541 70.0314 8.79703 70.0002 8.68562C69.969 8.57421 69.8888 8.3692 69.6615 8.23996L62.4864 4.0998C62.2591 3.96611 62.0408 3.9973 61.9294 4.0285C61.8179 4.0597 61.6174 4.13991 61.4882 4.3672L31.3751 56.5225C30.8849 57.3737 29.793 57.6678 28.9418 57.1732C28.0906 56.6829 27.7965 55.5911 28.2911 54.7399L58.3998 2.58903C58.9702 1.59967 59.8972 0.886614 61.0069 0.588023C62.121 0.289433 63.2797 0.440956 64.2735 1.01585L71.4486 5.15601C72.4424 5.72645 73.151 6.65788 73.4496 7.76757C73.7482 8.87725 73.5967 10.036 73.0218 11.0298L42.9042 63.1806C42.5745 63.7555 41.9728 64.0719 41.3578 64.0719Z" fill="#222222"/>
<path d="M29.5312 56.1373L50.1251 20.4625L54.7867 12.3916L66.3203 19.0453L61.6587 27.1206L41.0604 62.7955" fill="#FFE352"/>
<path d="M41.0576 64.5783C40.7545 64.5783 40.447 64.5026 40.1663 64.3377C39.3151 63.8474 39.0209 62.7556 39.5156 61.9044L63.8842 19.6962L55.439 14.8207L31.0704 57.0244C30.5757 57.8756 29.4883 58.1698 28.6371 57.6751C27.7859 57.1849 27.4918 56.093 27.9864 55.2418L53.2463 11.4916C53.7365 10.6404 54.8284 10.3463 55.6796 10.8409L67.2088 17.4991C67.6188 17.7353 67.9174 18.123 68.0377 18.582C68.1625 19.0366 68.0956 19.5268 67.8594 19.9368L42.604 63.687C42.2742 64.2619 41.677 64.5783 41.0576 64.5783Z" fill="#222222"/>
<path d="M41.0652 62.7978L28.7383 70.8285L29.536 56.1396L41.0652 62.7978Z" fill="white"/>
<path d="M28.7383 72.6113C28.4308 72.6113 28.1233 72.5311 27.847 72.3706C27.2677 72.0364 26.9201 71.3991 26.9602 70.7306L27.7534 56.0417C27.7891 55.4223 28.1412 54.8652 28.6849 54.5711C29.2286 54.2769 29.8881 54.2858 30.4274 54.5934L41.9565 61.2515C42.4913 61.5634 42.83 62.1294 42.8479 62.7489C42.8657 63.3684 42.5582 63.9522 42.0368 64.2909L29.7143 72.3216C29.4202 72.5177 29.0815 72.6113 28.7383 72.6113ZM31.1583 59.1346L30.7126 67.4149L37.6604 62.887L31.1583 59.1346Z" fill="#222222"/>
</svg>
