<svg width="92" height="85" viewBox="0 0 92 85" fill="none" xmlns="http://www.w3.org/2000/svg">
<path d="M70.2394 57.562L61.9935 65.803L24.2656 28.0703L32.5018 19.8292L70.2394 57.562Z" fill="white"/>
<path d="M61.9967 67.7587C61.4783 67.7587 60.9794 67.5532 60.6126 67.1864L22.8847 29.4537C22.1218 28.6907 22.1218 27.4533 22.8847 26.6855L31.1209 18.4444C31.4877 18.0776 31.9866 17.8722 32.505 17.8722C33.0234 17.8722 33.5223 18.0776 33.8891 18.4444L71.6267 56.1772C71.9935 56.544 72.199 57.0428 72.199 57.5613C72.199 58.0797 71.9935 58.5786 71.6267 58.9454L63.3857 67.1864C63.014 67.5532 62.5151 67.7587 61.9967 67.7587ZM27.0322 28.0696L61.9967 63.039L67.4744 57.5613L32.505 22.5967L27.0322 28.0696Z" fill="#222222"/>
<path d="M86.6127 72.0758C87.048 72.5111 87.048 73.2251 86.6127 73.6653L78.1173 82.1607C77.682 82.5959 76.968 82.5959 76.5278 82.1607L53.1937 58.8216C52.7584 58.3863 52.7584 57.6723 53.1937 57.237L61.689 48.7416C62.1243 48.3063 62.8384 48.3063 63.2785 48.7416L86.6127 72.0758Z" fill="#FFE352"/>
<path d="M77.3291 84.4413C76.5074 84.4413 75.7347 84.1234 75.1526 83.5414L51.8185 60.2023C50.6202 59.0041 50.6153 57.0527 51.8185 55.8495L60.3139 47.3541C60.8959 46.7721 61.6686 46.4542 62.4903 46.4542C63.3119 46.4542 64.0847 46.7721 64.6667 47.3541L88.0009 70.6883C89.1991 71.8865 89.204 73.838 88.0009 75.0411L79.5055 83.5365C78.9235 84.1234 78.1507 84.4413 77.3291 84.4413ZM55.1736 58.0308L77.3291 80.1863L84.6457 72.8696L62.4903 50.7141L55.1736 58.0308Z" fill="#222222"/>
<path d="M30.2537 6.64014L13.082 23.8069L23.7587 34.4836L40.9255 17.3168C45.1854 13.0569 54.4878 3.75455 54.4878 3.75455C40.1185 -0.505364 30.2537 6.64014 30.2537 6.64014Z" fill="white"/>
<path d="M23.7658 36.4439C23.267 36.4439 22.7632 36.2532 22.3817 35.8717L11.705 25.195C11.3382 24.8282 11.1328 24.3293 11.1328 23.8109C11.1328 23.2925 11.3382 22.7936 11.705 22.4268L28.8767 5.25997C28.9501 5.18661 29.0284 5.11814 29.1115 5.05945C29.3707 4.86871 35.5919 0.442505 45.3735 0.442505C48.5819 0.442505 51.8392 0.926697 55.0525 1.87552C55.7127 2.07115 56.2214 2.59936 56.3926 3.2694C56.5637 3.93945 56.3681 4.64862 55.879 5.13281L25.1499 35.8668C24.7684 36.2532 24.2647 36.4439 23.7658 36.4439ZM15.8525 23.8109L23.7658 31.7194L50.6458 4.83936C48.8802 4.51657 47.1195 4.35517 45.3735 4.35517C37.5139 4.35517 32.3248 7.60757 31.5129 8.15045L15.8525 23.8109Z" fill="#222222"/>
<path d="M11.5932 22.3207L1.95703 31.9542L15.6189 45.6199L25.2551 35.9864L11.5932 22.3207Z" fill="white"/>
<path d="M15.6213 47.575C15.1224 47.575 14.6187 47.3843 14.2372 47.0028L0.572227 33.3378C0.205415 32.971 0 32.4721 0 31.9537C0 31.4353 0.205415 30.9364 0.572227 30.5696L10.2072 20.9347C10.9701 20.1717 12.2124 20.1717 12.9754 20.9347L26.6404 34.5996C27.0072 34.9664 27.2126 35.4653 27.2126 35.9837C27.2126 36.5022 27.0072 37.001 26.6404 37.3678L17.0054 47.0028C16.6239 47.3843 16.1202 47.575 15.6213 47.575ZM4.72454 31.9537L15.6213 42.8505L22.488 35.9837L11.5913 25.087L4.72454 31.9537Z" fill="#222222"/>
<path d="M33.9465 67.2495L68.8035 32.3925C74.2323 34.7059 80.7567 33.6592 85.1829 29.2281C89.3058 25.1052 90.4943 19.1775 88.7776 13.9981L78.2183 24.5574L70.7794 22.5619L68.7839 15.123L79.3432 4.56368C74.1638 2.85189 68.2361 4.03547 64.1132 8.15844C59.687 12.5895 58.6354 19.1041 60.9488 24.5378L26.0919 59.3948C22.0618 58.1721 17.5036 59.1551 14.3147 62.3439C9.70758 66.9511 9.70758 74.4243 14.3147 79.0315C18.9268 83.6435 26.3951 83.6435 31.0071 79.0363C34.1911 75.8377 35.1692 71.2844 33.9465 67.2495ZM21.2157 72.1256C20.4185 71.3284 20.4185 70.0372 21.2157 69.24C22.0129 68.4428 23.3041 68.4428 24.1013 69.24C24.8985 70.0372 24.8985 71.3284 24.1013 72.1256C23.3041 72.9228 22.0129 72.9228 21.2157 72.1256Z" fill="white"/>
<path d="M22.659 84.4412C18.9811 84.4412 15.5282 83.0082 12.9263 80.4111C7.56103 75.0508 7.56103 66.3207 12.9263 60.9554C15.5233 58.3584 18.9811 56.9254 22.6541 56.9254C23.6078 56.9254 24.5616 57.0232 25.4908 57.2188L58.6653 24.0443C56.6307 17.9944 58.1567 11.3428 62.7247 6.76991C65.9037 3.59577 70.1294 1.84485 74.629 1.84485C76.4435 1.84485 78.2384 2.13341 79.9551 2.70074C80.6007 2.91594 81.0898 3.44415 81.2463 4.10441C81.4028 4.76467 81.2072 5.45917 80.7279 5.93847L70.9658 15.7055L72.3792 20.9631L77.6368 22.3766L87.394 12.6193C87.8733 12.14 88.5678 11.9444 89.2281 12.1009C89.8884 12.2574 90.4215 12.7465 90.6318 13.3872C92.6517 19.4861 91.0915 26.0887 86.5626 30.6176C83.3836 33.7966 79.1579 35.5476 74.6583 35.5476C72.8145 35.5476 71.0147 35.2541 69.2882 34.677L36.1137 67.8515C37.0674 72.3853 35.6882 77.1049 32.382 80.416C29.785 83.0131 26.332 84.4412 22.659 84.4412ZM22.6541 60.838C20.0229 60.838 17.553 61.8602 15.6945 63.7236C11.8552 67.5629 11.8552 73.8085 15.6945 77.6429C17.553 79.5014 20.0278 80.5285 22.659 80.5285C25.2903 80.5285 27.7602 79.5063 29.6187 77.6478C32.1913 75.0752 33.1303 71.3093 32.0739 67.8222C31.8636 67.1325 32.0543 66.3842 32.563 65.8707L67.4199 31.0138C67.9823 30.4513 68.8334 30.285 69.5719 30.598C71.1858 31.2876 72.8976 31.6349 74.6632 31.6349C78.1161 31.6349 81.3588 30.2899 83.7993 27.8494C86.455 25.1937 87.7804 21.6136 87.5652 17.9797L79.603 25.942C79.109 26.4359 78.39 26.6267 77.7102 26.4506L70.2713 24.4552C69.5963 24.2742 69.0681 23.746 68.8871 23.0711L66.8917 15.6321C66.7107 14.9572 66.9015 14.2382 67.4003 13.7393L75.3577 5.78197C75.1181 5.76729 74.8735 5.7624 74.629 5.7624C71.1761 5.7624 67.9334 7.10249 65.4929 9.54302C61.7416 13.2943 60.6657 18.8796 62.7443 23.7704C63.0573 24.5041 62.891 25.3551 62.3285 25.9175L27.4716 60.7745C26.963 61.2831 26.2098 61.4738 25.5202 61.2635C24.5909 60.9848 23.6274 60.838 22.6541 60.838ZM22.659 74.6791C21.5928 74.6791 20.5902 74.2634 19.8321 73.5102C19.0789 72.757 18.6632 71.7544 18.6632 70.6833C18.6632 69.6171 19.0789 68.6096 19.837 67.8564C20.5902 67.1032 21.5928 66.6826 22.6639 66.6826C23.7301 66.6826 24.7327 67.0983 25.4859 67.8515C26.2391 68.6047 26.6548 69.6122 26.6548 70.6784C26.6548 71.7446 26.2391 72.7521 25.481 73.5053C24.7327 74.2634 23.7252 74.6791 22.659 74.6791ZM22.659 70.6001C22.6248 70.6001 22.6101 70.6197 22.6003 70.6246C22.571 70.6539 22.571 70.7175 22.6003 70.742C22.615 70.7566 22.703 70.7566 22.7177 70.742C22.7471 70.7126 22.7471 70.649 22.7177 70.6197C22.7128 70.6148 22.6933 70.6001 22.659 70.6001Z" fill="#222222"/>
</svg>
