<svg width="97" height="85" viewBox="0 0 97 85" fill="none" xmlns="http://www.w3.org/2000/svg">
<path d="M54.9685 55.9755C54.9685 70.6119 43.1021 82.4832 28.4608 82.4832C13.8196 82.4832 1.95312 70.6168 1.95312 55.9755C1.95312 41.3342 13.8196 29.4678 28.4608 29.4678C43.0972 29.4678 54.9685 41.3342 54.9685 55.9755Z" fill="#FFE352"/>
<path d="M28.4618 84.4364C12.7653 84.4364 0 71.671 0 55.9745C0 40.278 12.7653 27.5127 28.4618 27.5127C44.1583 27.5127 56.9237 40.2829 56.9237 55.9745C56.9237 71.671 44.1535 84.4364 28.4618 84.4364ZM28.4618 31.4209C14.9246 31.4209 3.90825 42.4373 3.90825 55.9745C3.90825 69.5117 14.9246 80.5281 28.4618 80.5281C41.999 80.5281 53.0154 69.5117 53.0154 55.9745C53.0154 42.4373 41.999 31.4209 28.4618 31.4209Z" fill="#222222"/>
<path d="M28.4646 76.0099C17.4189 76.0099 8.42993 67.021 8.42993 55.9753C8.42993 44.9296 17.4189 35.9406 28.4646 35.9406C39.5103 35.9406 48.4993 44.9296 48.4993 55.9753C48.4944 67.021 39.5103 76.0099 28.4646 76.0099ZM28.4646 39.8489C19.5733 39.8489 12.3382 47.084 12.3382 55.9753C12.3382 64.8666 19.5733 72.1017 28.4646 72.1017C37.3559 72.1017 44.591 64.8666 44.591 55.9753C44.5861 47.084 37.3559 39.8489 28.4646 39.8489Z" fill="white"/>
<path d="M27.1921 64.791C26.5961 64.791 26.0294 64.5174 25.6581 64.0436L20.1035 56.9843C19.4342 56.1342 19.5808 54.908 20.4308 54.2387C21.2809 53.5695 22.5071 53.7209 23.1764 54.5661L27.0748 59.5198L33.6749 49.7443C34.2807 48.8502 35.4922 48.6157 36.3862 49.2166C37.2803 49.8224 37.5147 51.034 36.9139 51.928L28.814 63.9214C28.4671 64.4393 27.8907 64.7568 27.2654 64.7813C27.2409 64.791 27.2165 64.791 27.1921 64.791Z" fill="#222222"/>
<path d="M74.9929 22.0512C85.3449 32.4032 85.4377 49.0914 75.203 59.3311C64.9633 69.5707 48.2751 69.473 37.9231 59.121C27.5711 48.769 27.4783 32.0808 37.7131 21.8412C47.9527 11.6064 64.6409 11.6993 74.9929 22.0512Z" fill="white"/>
<path d="M56.7616 68.9022C49.1405 68.9022 41.964 65.9173 36.5462 60.5044C25.4468 49.4098 25.3539 31.4465 36.3361 20.4643C41.6171 15.1833 48.6618 12.2766 56.1656 12.2766C63.7867 12.2766 70.9632 15.2615 76.381 20.6744C81.7549 26.0482 84.7349 33.171 84.7789 40.7286C84.8228 48.296 81.9112 55.3943 76.5911 60.7193C71.3101 65.9955 64.2654 68.9022 56.7616 68.9022ZM56.1705 16.1848C49.7072 16.1848 43.6494 18.6861 39.1061 23.2294C29.6432 32.6874 29.7361 48.1689 39.3113 57.7442C43.9865 62.4194 50.186 64.9988 56.7616 64.9988C63.2249 64.9988 69.2827 62.4976 73.826 57.9542C78.4035 53.3767 80.9048 47.2652 80.8706 40.7482C80.8364 34.2263 78.257 28.0757 73.6159 23.4346C68.9407 18.7594 62.7461 16.1848 56.1705 16.1848Z" fill="#222222"/>
<path d="M48.9922 24.9563C48.9922 24.9563 57.1458 28.2637 62.3926 23.6031C65.6071 20.7452 66.7454 15.64 68.8754 12.0347C71.3816 7.78935 74.8795 4.42337 79.6573 2.98709C90.8202 -0.369124 99.2865 11.2579 92.2761 21.3852C89.1446 25.9139 84.0101 28.5031 79.203 30.7699C77.283 31.6785 74.8892 32.6996 73.4432 34.3264C68.7777 39.5732 72.0899 47.7268 72.0899 47.7268" fill="white"/>
<path d="M72.0924 49.6816C71.3206 49.6816 70.5878 49.2224 70.28 48.4603C70.1286 48.0792 66.5769 39.1098 71.985 33.0276C73.5727 31.2444 75.947 30.1355 77.8522 29.2463L78.375 29.0021C83.27 26.6962 87.8964 24.2878 90.6762 20.272C94.0031 15.4649 93.0798 10.8483 91.1012 8.13202C88.6927 4.81978 84.5256 3.56914 80.2265 4.85886C76.3231 6.03134 73.0744 8.78177 70.5633 13.032C69.8794 14.1849 69.2932 15.5479 68.6727 16.9842C67.4123 19.9007 66.1128 22.9199 63.6995 25.0645C57.6124 30.4726 48.6429 26.9258 48.2619 26.7695C47.2604 26.364 46.7816 25.2257 47.1871 24.2242C47.5926 23.2276 48.7309 22.744 49.7275 23.1446C49.8008 23.1739 56.8454 25.9292 61.1005 22.1431C62.8641 20.5749 63.9926 17.9613 65.082 15.4356C65.722 13.9504 66.3864 12.4116 67.1974 11.0437C70.2214 5.91898 74.2273 2.58231 79.1029 1.11671C85.0385 -0.666426 90.852 1.13625 94.262 5.83104C97.7892 10.6822 97.6475 17.0673 93.8907 22.4948C90.5589 27.3118 85.4391 29.9938 80.0457 32.5342L79.5132 32.7833C77.8522 33.5601 75.9665 34.4394 74.9162 35.6217C71.1056 39.911 73.8805 46.9214 73.9098 46.9898C74.3153 47.9913 73.8316 49.1296 72.835 49.535C72.5859 49.6328 72.3367 49.6816 72.0924 49.6816Z" fill="#222222"/>
</svg>
