<svg width="109" height="85" viewBox="0 0 109 85" fill="none" xmlns="http://www.w3.org/2000/svg">
<path d="M61.007 14.8169C59.5094 14.8169 58.2589 14.1842 57.5719 13.082C56.8849 11.9798 56.8651 10.5761 57.5225 9.23172L59.6033 4.97612C60.3694 3.39942 61.8819 2.42078 63.5476 2.42078C64.5361 2.42078 65.5048 2.75688 66.3352 3.39942L73.1659 8.65838L79.9966 3.39942C80.8319 2.75688 81.7958 2.42078 82.7843 2.42078C84.4499 2.42078 85.9624 3.39942 86.7334 4.98106L88.8093 9.23666C89.4667 10.5811 89.4469 11.9848 88.7599 13.087C88.0729 14.1892 86.8175 14.8218 85.3248 14.8218H61.007V14.8169Z" fill="#FFE352"/>
<path d="M82.7836 4.39636C83.6683 4.39636 84.4937 4.90546 84.9534 5.84456L87.0342 10.1002C87.7707 11.6077 86.9996 12.8384 85.3241 12.8384H61.0063C59.3308 12.8384 58.5597 11.6027 59.2962 10.1002L61.377 5.84456C61.8367 4.90051 62.6671 4.39636 63.5469 4.39636C64.0807 4.39636 64.6293 4.57924 65.1285 4.96477L72.9378 10.9799C73.0169 11.0442 73.096 11.1085 73.1652 11.1678C73.2344 11.1085 73.3085 11.0442 73.3926 10.9799L81.2019 4.96477C81.7011 4.57924 82.2547 4.39636 82.7836 4.39636ZM82.7836 0.442261C81.3502 0.442261 79.9712 0.921696 78.7899 1.83114L73.1652 6.16088L67.5405 1.83114C66.3592 0.921696 64.9802 0.442261 63.5469 0.442261C61.12 0.442261 58.9255 1.84597 57.8233 4.10969L55.7424 8.36035C54.7786 10.3325 54.8379 12.4331 55.8907 14.1284C56.9484 15.8188 58.8118 16.7925 61.0014 16.7925H85.3191C87.5087 16.7925 89.377 15.8237 90.4298 14.1284C91.4875 12.4331 91.5419 10.3325 90.5781 8.3653L88.4972 4.10969C87.4099 1.85091 85.2153 0.442261 82.7836 0.442261Z" fill="#222222"/>
<path d="M43.8513 56.1932C43.8513 57.9973 45.3143 59.4652 47.1233 59.4652H99.2285C101.033 59.4652 102.501 58.0022 102.501 56.1932V25.5341H43.8513V56.1932Z" fill="white"/>
<path d="M99.2202 61.4359H47.1199C44.2285 61.4359 41.8708 59.0832 41.8708 56.1868V25.5326C41.8708 24.4403 42.7556 23.5555 43.8479 23.5555H102.492C103.585 23.5555 104.469 24.4403 104.469 25.5326V56.1868C104.469 59.0832 102.117 61.4359 99.2202 61.4359ZM45.825 27.5096V56.1868C45.825 56.8985 46.4032 57.4818 47.1199 57.4818H99.2251C99.9369 57.4818 100.52 56.9035 100.52 56.1868V27.5096H45.825Z" fill="#222222"/>
<path d="M103.035 12.8427H43.303C41.494 12.8427 40.031 14.3057 40.031 16.1147V25.5403H106.307V16.1147C106.307 14.3057 104.839 12.8427 103.035 12.8427Z" fill="white"/>
<path d="M106.303 27.5109H40.0276C38.9353 27.5109 38.0505 26.6262 38.0505 25.5339V16.1132C38.0505 13.2218 40.4032 10.8641 43.2996 10.8641H103.036C105.928 10.8641 108.285 13.2168 108.285 16.1132V25.5339C108.28 26.6262 107.396 27.5109 106.303 27.5109ZM42.0046 23.5568H104.326V16.1132C104.326 15.4015 103.748 14.8182 103.031 14.8182H43.2996C42.5879 14.8182 42.0046 15.3965 42.0046 16.1132V23.5568Z" fill="#222222"/>
<path d="M77.7582 12.8427H68.5896V25.5353H77.7582V12.8427Z" fill="#FFE352"/>
<path d="M79.7318 27.5109H66.6091V10.8641H79.7318V27.5109ZM70.5632 23.5568H75.7777V14.8182H70.5632V23.5568Z" fill="#222222"/>
<path d="M77.7582 25.5614H68.5896V59.7397H77.7582V25.5614Z" fill="#FFE352"/>
<path d="M79.7318 61.7153H66.6091V23.5829H79.7318V61.7153ZM70.5632 57.7612H75.7777V27.537H70.5632V57.7612Z" fill="#222222"/>
<path d="M43.6016 54.5282V70.053H67H99.3396C102.364 70.053 104.821 67.6015 104.821 64.5766V54.5282H43.6016Z" fill="#FFE352"/>
<path d="M99.3312 72.0286H43.5981C42.5058 72.0286 41.6211 71.1439 41.6211 70.0515V54.5267C41.6211 53.4344 42.5058 52.5497 43.5981 52.5497H104.813C105.905 52.5497 106.79 53.4344 106.79 54.5267V64.5751C106.79 68.6824 103.444 72.0286 99.3312 72.0286ZM45.5752 68.0745H99.3362C101.269 68.0745 102.841 66.5027 102.841 64.5751V56.5038H45.5752V68.0745Z" fill="#222222"/>
<path d="M99.4046 73.166C99.4046 78.3014 95.2429 82.4582 90.1125 82.4582C84.9771 82.4582 80.8203 78.2965 80.8203 73.166C80.8203 68.0307 84.982 63.8739 90.1125 63.8739C95.2429 63.8739 99.4046 68.0356 99.4046 73.166Z" fill="white"/>
<path d="M90.109 84.4416C83.8962 84.4416 78.8398 79.3853 78.8398 73.1724C78.8398 66.9595 83.8962 61.9032 90.109 61.9032C96.3219 61.9032 101.378 66.9595 101.378 73.1724C101.378 79.3853 96.3219 84.4416 90.109 84.4416ZM90.109 65.8524C86.0759 65.8524 82.7939 69.1343 82.7939 73.1675C82.7939 77.2006 86.0759 80.4825 90.109 80.4825C94.1422 80.4825 97.4241 77.2006 97.4241 73.1675C97.4241 69.1343 94.1422 65.8524 90.109 65.8524Z" fill="#222222"/>
<path d="M20.7575 31.2098L13.9762 45.8153C10.7141 45.8499 7.7584 47.1696 5.59847 49.2949C3.36441 51.4944 1.98047 54.5489 1.98047 57.9297V70.049H14.0998H28.468H43.5875V31.2098H20.7575Z" fill="white"/>
<path d="M43.5891 72.0246H1.97705C0.884731 72.0246 0 71.1399 0 70.0476V57.9282C0 54.1224 1.49267 50.5588 4.20618 47.8848C6.51439 45.6112 9.48491 44.2223 12.6778 43.906L18.9649 30.3731C19.2911 29.6762 19.988 29.2313 20.759 29.2313H43.5891C44.6814 29.2313 45.5661 30.1161 45.5661 31.2084V70.0476C45.5661 71.1399 44.6764 72.0246 43.5891 72.0246ZM3.9541 68.0705H41.612V33.1854H22.0194L15.767 46.6492C15.4457 47.3411 14.7538 47.786 13.9926 47.7909C11.3532 47.8156 8.86214 48.8536 6.98394 50.7021C5.0316 52.6248 3.9541 55.19 3.9541 57.9282V68.0705Z" fill="#222222"/>
<path d="M36.381 38.1005H25.6011L20.5547 48.9644H36.381V38.1005Z" fill="#FFE352"/>
<path d="M25.971 73.166C25.971 78.3014 21.8093 82.4582 16.6789 82.4582C11.5484 82.4582 7.38672 78.2965 7.38672 73.166C7.38672 68.0307 11.5484 63.8739 16.6789 63.8739C21.8143 63.8739 25.971 68.0356 25.971 73.166Z" fill="white"/>
<path d="M16.6754 84.4416C10.4626 84.4416 5.40625 79.3853 5.40625 73.1724C5.40625 66.9595 10.4626 61.9032 16.6754 61.9032C22.8883 61.9032 27.9446 66.9595 27.9446 73.1724C27.9446 79.3853 22.8883 84.4416 16.6754 84.4416ZM16.6754 65.8524C12.6423 65.8524 9.36035 69.1343 9.36035 73.1675C9.36035 77.2006 12.6423 80.4825 16.6754 80.4825C20.7086 80.4825 23.9905 77.2006 23.9905 73.1675C23.9905 69.1343 20.7086 65.8524 16.6754 65.8524Z" fill="#222222"/>
</svg>
