<svg width="73" height="85" viewBox="0 0 73 85" fill="none" xmlns="http://www.w3.org/2000/svg">
<path d="M54.7403 32.4265C54.7403 42.7136 46.403 51.0509 36.1159 51.0509C25.8287 51.0509 17.4915 42.7136 17.4915 32.4265C17.4915 22.1393 25.8287 13.8065 36.1159 13.8065C46.403 13.802 54.7403 22.1393 54.7403 32.4265Z" fill="white"/>
<path d="M36.1159 52.8458C24.8605 52.8458 15.6985 43.6883 15.6985 32.4284C15.6985 21.1731 24.8561 12.0155 36.1159 12.0155C47.3757 12.0155 56.5333 21.1731 56.5333 32.4284C56.5333 43.6838 47.3757 52.8458 36.1159 52.8458ZM36.1159 15.597C26.8373 15.597 19.2844 23.1453 19.2844 32.4239C19.2844 41.707 26.8328 49.2554 36.1159 49.2554C45.399 49.2554 52.9474 41.7025 52.9474 32.4239C52.9474 23.1453 45.399 15.597 36.1159 15.597Z" fill="#222222"/>
<path d="M32.3442 30.9419C32.3442 32.2776 31.2594 33.3624 29.9237 33.3624C28.5879 33.3624 27.5032 32.2821 27.5032 30.9419C27.5032 29.6061 28.5879 28.5214 29.9237 28.5214C31.2594 28.5214 32.3442 29.6061 32.3442 30.9419Z" fill="#222222"/>
<path d="M45.1332 30.9419C45.1332 32.2776 44.0485 33.3624 42.7127 33.3624C41.377 33.3624 40.2922 32.2821 40.2922 30.9419C40.2922 29.6061 41.377 28.5214 42.7127 28.5214C44.053 28.5214 45.1332 29.6061 45.1332 30.9419Z" fill="#222222"/>
<path d="M36.3175 40.9275C33.6325 40.9275 31.2344 40.0623 30.0555 38.6683C29.4145 37.9108 29.5132 36.7812 30.2707 36.1402C31.0282 35.5037 32.1578 35.5979 32.7988 36.3554C33.1215 36.7364 34.3631 37.3415 36.3175 37.3415C38.2763 37.3415 39.5179 36.7364 39.8406 36.3554C40.4771 35.5979 41.6112 35.5037 42.3687 36.1402C43.1263 36.7812 43.2204 37.9108 42.5839 38.6683C41.4005 40.0623 39.0024 40.9275 36.3175 40.9275Z" fill="#222222"/>
<path d="M62.6059 77.5398C62.6059 62.9092 50.7454 51.0487 36.1148 51.0487C21.4842 51.0487 9.62817 62.9092 9.62817 77.5398V82.6408H62.6059V77.5398Z" fill="white"/>
<path d="M62.6059 84.4357H9.62817C8.63756 84.4357 7.83521 83.6333 7.83521 82.6427V77.5417C7.83521 61.9474 20.5204 49.2577 36.1148 49.2577C51.7091 49.2577 64.3988 61.9429 64.3988 77.5417V82.6427C64.3988 83.6333 63.5965 84.4357 62.6059 84.4357ZM11.4211 80.8498H60.8129V77.5417C60.8129 63.9242 49.7324 52.8436 36.1148 52.8436C22.4972 52.8436 11.4211 63.9242 11.4211 77.5417V80.8498Z" fill="#222222"/>
<path d="M59.4656 53.6667H43.1047C42.1141 53.6667 41.3118 52.8643 41.3118 51.8737C41.3118 50.8831 42.1141 50.0808 43.1047 50.0808H59.4656C60.0617 50.0808 60.5458 49.6594 60.5458 49.135V36.5663C60.5458 35.5757 61.3482 34.7733 62.3388 34.7733C63.3294 34.7733 64.1318 35.5757 64.1318 36.5663V49.135C64.1318 51.6317 62.0385 53.6667 59.4656 53.6667Z" fill="#222222"/>
<path d="M61.9815 40.1196C60.9909 40.1196 60.1885 39.3173 60.1885 38.3267V26.6903C60.1885 14.1933 49.4755 4.02722 36.3107 4.02722C23.1458 4.02722 12.4329 14.1933 12.4329 26.6903V38.3311C12.4329 39.3218 11.6305 40.1241 10.6399 40.1241C9.64928 40.1241 8.84692 39.3218 8.84692 38.3311V26.6903C8.84692 12.2166 21.1691 0.441284 36.3107 0.441284C51.4568 0.441284 63.7745 12.2166 63.7745 26.6903V38.3311C63.7745 39.3173 62.9721 40.1196 61.9815 40.1196Z" fill="#222222"/>
<path d="M14.5725 22.0098H13.7567H12.3313C12.3179 22.0098 12.2999 22.0143 12.2865 22.0143V22.0098C11.3586 22.0098 10.4577 22.1264 9.60601 22.3415C5.44632 23.3904 2.3938 27.0167 2.3938 33.5162C2.3938 41.3515 6.82691 45.027 12.291 45.027V45.0226C12.3044 45.0226 12.3179 45.027 12.3358 45.027H14.577C15.2897 45.027 15.8679 44.4757 15.8679 43.7944V23.2425C15.8635 22.5612 15.2852 22.0098 14.5725 22.0098Z" fill="#FFE352"/>
<path d="M14.5725 46.822H12.3313C12.3179 46.822 12.3044 46.822 12.2865 46.822C5.19082 46.822 0.60083 41.5999 0.60083 33.5181C0.60083 26.6825 3.72508 21.9759 9.17121 20.6043C10.1842 20.3488 11.2331 20.2188 12.291 20.2188C12.3044 20.2188 12.3224 20.2188 12.3358 20.2188H14.577C16.2758 20.2188 17.6609 21.577 17.6609 23.2444V43.7963C17.6564 45.4638 16.2758 46.822 14.5725 46.822ZM12.3941 43.236H14.075V23.8047H12.403C12.3268 23.8092 12.2596 23.8092 12.1924 23.8047C11.4662 23.8137 10.749 23.9034 10.0542 24.0782C6.26661 25.0329 4.18676 28.3858 4.18676 33.5181C4.18676 39.5649 7.17654 43.1867 12.1924 43.236C12.2551 43.2315 12.3179 43.2315 12.3941 43.236Z" fill="#222222"/>
<path d="M63.0145 22.3415C62.1629 22.1264 61.2664 22.0098 60.334 22.0098V22.0143C60.3206 22.0143 60.3027 22.0098 60.2892 22.0098H58.8638H58.048C57.3398 22.0098 56.7571 22.5612 56.7571 23.2425V43.7944C56.7571 44.4757 57.3398 45.027 58.048 45.027H60.2892C60.3027 45.027 60.3206 45.0226 60.334 45.0226V45.027C65.7981 45.027 70.2312 41.3515 70.2312 33.5162C70.2312 27.0167 67.1787 23.3904 63.0145 22.3415Z" fill="#FFE352"/>
<path d="M60.3419 46.822C60.3284 46.822 60.3105 46.822 60.297 46.822H58.0558C56.357 46.822 54.9719 45.4638 54.9719 43.7963V23.2444C54.9719 21.577 56.357 20.2188 58.0558 20.2188H60.297C60.3105 20.2188 60.3239 20.2188 60.3419 20.2188C61.3952 20.2188 62.4441 20.3488 63.4571 20.6043C68.9033 21.9759 72.0275 26.6825 72.0275 33.5181C72.0275 41.5999 67.442 46.822 60.3419 46.822ZM58.5579 43.236H60.2388C60.315 43.2315 60.3732 43.2315 60.436 43.236C65.4518 43.1912 68.4416 39.5649 68.4416 33.5181C68.4416 28.3858 66.3617 25.0329 62.5786 24.0782C61.8838 23.9034 61.1666 23.8092 60.4405 23.8047C60.3732 23.8092 60.306 23.8092 60.2298 23.8047H58.5579V43.236Z" fill="#222222"/>
<path d="M49.6732 54.2018C49.6732 54.8652 49.1084 55.3986 48.4136 55.3986H38.1489C37.4541 55.3986 36.8938 54.8607 36.8938 54.2018V49.5445C36.8938 48.8811 37.4541 48.3477 38.1489 48.3477H48.4181C49.1129 48.3477 49.6777 48.8856 49.6777 49.5445V54.2018H49.6732Z" fill="white"/>
<path d="M48.4181 57.1974H38.1489C36.468 57.1974 35.1008 55.8571 35.1008 54.2076V49.5504C35.1008 47.9008 36.468 46.5606 38.1489 46.5606H48.4181C50.099 46.5606 51.4706 47.9008 51.4706 49.5504V54.2076C51.4661 55.8527 50.099 57.1974 48.4181 57.1974ZM38.6823 53.6115H47.8802V50.1421H38.6823V53.6115Z" fill="#222222"/>
</svg>
