<svg width="60" height="85" viewBox="0 0 60 85" fill="none" xmlns="http://www.w3.org/2000/svg">
<path d="M5.21975 73.7601C2.33815 73.7601 0 76.0937 0 78.9799C0 81.8615 2.33815 84.1996 5.21975 84.1996H57.778V73.7601H5.21975Z" fill="#AAAAAA"/>
<path d="M16.2969 33.5739L35.3629 22.5728L57.2602 47.2056L57.3105 82.6204L26.6679 64.8559L16.2969 33.5739Z" fill="white"/>
<path d="M57.3199 84.4456C57.3153 84.4456 57.3153 84.4456 57.3107 84.4456C56.9956 84.4456 56.676 84.3634 56.3928 84.199L25.7502 66.4345C25.3621 66.2107 25.0744 65.8545 24.9328 65.4298L14.5664 34.1479C14.2924 33.3259 14.6349 32.4263 15.3884 31.9924L34.4544 20.9912C35.2033 20.5574 36.1578 20.7126 36.7332 21.3611L58.6305 45.9939C58.9274 46.3273 59.0918 46.7566 59.0918 47.2041L59.142 82.4363C59.1466 82.4956 59.1511 82.5596 59.1511 82.6235C59.1466 83.6282 58.3291 84.4456 57.3199 84.4456ZM28.1843 63.626L55.4795 79.4496L55.4384 47.8983L34.9887 24.8958L18.5029 34.4082L28.1843 63.626Z" fill="#222222"/>
<path d="M57.3092 84.4414C56.679 84.4414 56.0625 84.1126 55.7246 83.528L39.3027 55.0683C38.8004 54.1961 39.0972 53.0772 39.974 52.5749C40.8462 52.068 41.9651 52.3694 42.4674 53.2416L58.8893 81.7014C59.3916 82.5736 59.0948 83.6924 58.218 84.1948C57.9349 84.3638 57.6198 84.4414 57.3092 84.4414Z" fill="#222222"/>
<path d="M38.7943 56.5475C36.6434 56.5475 34.634 55.3921 33.5608 53.5289C32.7525 52.1315 32.5425 50.5058 32.958 48.9485C33.3736 47.3913 34.3737 46.0898 35.7711 45.2815C36.6845 44.7517 37.7303 44.4731 38.7852 44.4731C40.9406 44.4731 42.9454 45.6331 44.0186 47.4963C44.8223 48.8937 45.037 50.5195 44.6214 52.0767C44.2058 53.634 43.2057 54.9355 41.8083 55.7438C40.8904 56.2689 39.8492 56.5475 38.7943 56.5475ZM38.7852 48.1265C38.3696 48.1265 37.9586 48.2361 37.5978 48.4462C37.0452 48.7659 36.6479 49.2773 36.4835 49.8938C36.3191 50.5103 36.4013 51.1497 36.721 51.7022C37.1457 52.4375 37.9403 52.8942 38.7897 52.8942C39.2053 52.8942 39.6163 52.7846 39.9771 52.5745C40.5296 52.2548 40.9224 51.7433 41.0868 51.1268C41.2512 50.5103 41.1644 49.8664 40.8493 49.3184C40.4292 48.5832 39.6346 48.1265 38.7852 48.1265Z" fill="#222222"/>
<path d="M37.7339 17.5222L29.9157 3.97738C28.975 2.34707 26.8834 1.78536 25.2486 2.7261L4.1732 14.8964C2.53832 15.8417 1.98118 17.9287 2.92192 19.5635L10.7401 33.1084C11.6854 34.7433 13.7724 35.3004 15.4073 34.3597L36.4826 22.1894C38.1175 21.2441 38.6792 19.1571 37.7339 17.5222Z" fill="#FFE352"/>
<path d="M13.703 36.6376C11.8353 36.6376 10.0908 35.6329 9.15917 34.0163L1.34097 20.476C-0.102106 17.9735 0.756435 14.7585 3.25899 13.3154L24.3343 1.14517C25.1289 0.68393 26.0332 0.441895 26.9511 0.441895C28.8188 0.441895 30.5633 1.44657 31.4949 3.06318L39.3177 16.608C40.0164 17.8228 40.2036 19.2339 39.8429 20.5856C39.4821 21.9374 38.6144 23.0699 37.3997 23.7686L16.3198 35.9389C15.5252 36.3956 14.621 36.6376 13.703 36.6376ZM26.9511 4.09526C26.6725 4.09526 26.4031 4.16833 26.161 4.3099L5.08567 16.4756C4.3276 16.914 4.0673 17.8867 4.50113 18.6494L12.3239 32.1896C12.607 32.6783 13.1368 32.9842 13.703 32.9842C13.9816 32.9842 14.2511 32.9112 14.4931 32.7696L35.5684 20.6039C35.9383 20.3938 36.1986 20.0468 36.3082 19.6403C36.4178 19.2293 36.363 18.8001 36.1484 18.4347L28.3348 4.88987C28.0516 4.40123 27.5219 4.09526 26.9511 4.09526Z" fill="#222222"/>
</svg>
