<svg width="104" height="104" viewBox="0 0 104 104" fill="none" xmlns="http://www.w3.org/2000/svg">
<path d="M52.0003 85.3333C70.4098 85.3333 85.3337 70.4095 85.3337 52C85.3337 33.5905 70.4098 18.6667 52.0003 18.6667C33.5908 18.6667 18.667 33.5905 18.667 52C18.667 70.4095 33.5908 85.3333 52.0003 85.3333Z" fill="#EDEDED"/>
<path d="M83.0853 90.7174C74.552 97.7841 63.752 102.001 52.002 102.001C40.402 102.001 29.7353 97.8841 21.252 91.0008" stroke="#EDEDED" stroke-width="3" stroke-miterlimit="10"/>
<path d="M71.4668 2C89.4001 9.9 102 28.3833 102 49.95C102 50.9 101.983 51.8333 101.933 52.7667" stroke="#EDEDED" stroke-width="3" stroke-miterlimit="10"/>
<path d="M2.10049 53.4C2.03382 52.25 2.00049 51.1 2.00049 49.95C2.00049 28.3833 14.6005 9.9 32.5338 2" stroke="#EDEDED" stroke-width="3" stroke-miterlimit="10"/>
<path d="M44.8737 6.31693C44.3903 5.16693 43.257 4.35027 41.9403 4.35027C40.7737 4.35027 39.757 4.9836 39.207 5.9336L28.0903 25.1836L44.607 34.7169L52.957 20.2503C52.9403 20.2503 44.9403 6.4836 44.8737 6.31693Z" fill="white" stroke="#222222" stroke-width="3" stroke-miterlimit="10"/>
<path d="M81.5547 17.434L75.388 20.984L66.8547 6.20065C66.3547 5.10065 65.2547 4.33398 63.9713 4.33398H41.938C43.1047 4.33398 44.1213 4.96732 44.688 5.90065L58.888 30.5173L52.9047 33.9673L53.188 34.334L75.738 40.384L81.788 17.8173L81.5547 17.434Z" fill="#FDCB2A" stroke="#222222" stroke-width="3" stroke-miterlimit="10"/>
<path d="M95.9398 66.7499C97.1731 66.9166 98.4398 66.3333 99.1065 65.1833C99.6898 64.1666 99.6398 62.9666 99.1065 62.0166L87.9898 42.7666L71.4731 52.2999L79.8231 66.7666C79.8398 66.7833 95.7565 66.7333 95.9398 66.7499Z" fill="white" stroke="#222222" stroke-width="3" stroke-miterlimit="10"/>
<path d="M67.955 92.9658V85.8492H85.0217C86.2217 85.9658 87.4383 85.3825 88.0717 84.2825L99.0883 65.1992C98.505 66.2158 97.4384 66.7825 96.355 66.7825H67.9384V59.8825L67.4883 59.9492L50.9717 76.4658L67.4883 92.9825H67.955V92.9658Z" fill="#FDCB2A" stroke="#222222" stroke-width="3" stroke-miterlimit="10"/>
<path d="M16.1556 80.699C15.3889 81.6824 15.2556 83.0824 15.9223 84.2324C16.5056 85.249 17.5723 85.799 18.6556 85.8157H40.8889V66.749H24.1889C24.1889 66.749 16.2556 80.5657 16.1556 80.699Z" fill="white" stroke="#222222" stroke-width="3" stroke-miterlimit="10"/>
<path d="M7.43885 43.3663L13.6055 46.933L5.07218 61.7163C4.37218 62.6996 4.25552 64.033 4.90552 65.1496L15.9222 84.233C15.3389 83.2163 15.3722 82.0163 15.9055 81.0663L30.1055 56.4663L36.0889 59.9163L36.2555 59.483L30.2055 36.933L7.67218 42.983L7.43885 43.3663Z" fill="#FDCB2A" stroke="#222222" stroke-width="3" stroke-miterlimit="10"/>
</svg>
