<svg width="100" height="104" viewBox="0 0 100 104" fill="none" xmlns="http://www.w3.org/2000/svg">
<path d="M49.9987 91.985C72.0864 91.985 89.992 74.0794 89.992 51.9917C89.992 29.904 72.0864 11.9983 49.9987 11.9983C27.911 11.9983 10.0054 29.904 10.0054 51.9917C10.0054 74.0794 27.911 91.985 49.9987 91.985Z" fill="#EDEDED"/>
<path d="M1.67334 32.8782C6.73916 18.8305 17.5707 7.63239 31.2184 2" stroke="#EDEDED" stroke-width="3" stroke-miterlimit="10"/>
<path d="M74.9938 96.1017C67.7451 99.8678 59.5131 102.001 50.7812 102.001C40.8495 102.001 31.5678 99.2512 23.6357 94.452" stroke="#EDEDED" stroke-width="3" stroke-miterlimit="10"/>
<path d="M75.0611 64.7233H68.6788C68.6788 64.7233 63.5464 51.9921 51.3151 51.9921H28.8188L10.4885 63.0736H1.67334V71.9888V83.6535H98.3239V71.9888C98.3239 71.9888 98.3239 64.7233 75.0611 64.7233Z" fill="#FDCB2A" stroke="#222222" stroke-width="3" stroke-miterlimit="10"/>
<path d="M50.0651 57.1573C59.3469 57.1573 63.2629 65.1726 63.2629 65.1726H43.7495V57.1573H50.0651Z" fill="white" stroke="#222222" stroke-width="3" stroke-miterlimit="10"/>
<path d="M16.2544 65.1726H38.7506V57.1573H29.5855L16.2544 64.6227V65.1726Z" fill="white" stroke="#222222" stroke-width="3" stroke-miterlimit="10"/>
<path d="M18.3373 91.9855C22.9389 91.9855 26.6693 88.2551 26.6693 83.6535C26.6693 79.0519 22.9389 75.3216 18.3373 75.3216C13.7357 75.3216 10.0054 79.0519 10.0054 83.6535C10.0054 88.2551 13.7357 91.9855 18.3373 91.9855Z" fill="white" stroke="#222222" stroke-width="3" stroke-miterlimit="10"/>
<path d="M18.3373 87.4029C20.408 87.4029 22.0866 85.7242 22.0866 83.6535C22.0866 81.5828 20.408 79.9041 18.3373 79.9041C16.2665 79.9041 14.5879 81.5828 14.5879 83.6535C14.5879 85.7242 16.2665 87.4029 18.3373 87.4029Z" fill="#FDCB2A" stroke="#222222" stroke-width="3" stroke-miterlimit="10"/>
<path d="M74.9945 91.9855C79.5961 91.9855 83.3265 88.2551 83.3265 83.6535C83.3265 79.0519 79.5961 75.3216 74.9945 75.3216C70.3929 75.3216 66.6626 79.0519 66.6626 83.6535C66.6626 88.2551 70.3929 91.9855 74.9945 91.9855Z" fill="white" stroke="#222222" stroke-width="3" stroke-miterlimit="10"/>
<path d="M98.3261 73.5885H91.5605V78.6876H98.3261V73.5885Z" fill="white" stroke="#222222" stroke-width="3" stroke-miterlimit="10"/>
<path d="M74.9945 87.4029C77.0652 87.4029 78.7439 85.7242 78.7439 83.6535C78.7439 81.5828 77.0652 79.9041 74.9945 79.9041C72.9238 79.9041 71.2451 81.5828 71.2451 83.6535C71.2451 85.7242 72.9238 87.4029 74.9945 87.4029Z" fill="#FDCB2A" stroke="#222222" stroke-width="3" stroke-miterlimit="10"/>
<path d="M68.3267 18.665L74.9922 11.9995L81.6578 18.665" stroke="#222222" stroke-width="3" stroke-miterlimit="10"/>
<path d="M74.9937 11.9989V51.9922" stroke="#222222" stroke-width="3" stroke-miterlimit="10"/>
<path d="M88.3237 21.9957L94.9893 28.6613L88.3237 35.3269" stroke="#222222" stroke-width="3" stroke-miterlimit="10"/>
<path d="M94.9893 28.6621H81.6582V45.326" stroke="#222222" stroke-width="3" stroke-miterlimit="10"/>
<path d="M61.6641 21.9957L54.9985 28.6613L61.6641 35.3269" stroke="#222222" stroke-width="3" stroke-miterlimit="10"/>
<path d="M54.998 28.6621H68.3292V45.326" stroke="#222222" stroke-width="3" stroke-miterlimit="10"/>
</svg>
