<svg width="99" height="104" viewBox="0 0 99 104" fill="none" xmlns="http://www.w3.org/2000/svg">
<path d="M55.1757 91.6552C78.9811 91.6552 98.2792 72.3571 98.2792 48.5517C98.2792 24.7463 78.9811 5.44827 55.1757 5.44827C31.3703 5.44827 12.0723 24.7463 12.0723 48.5517C12.0723 72.3571 31.3703 91.6552 55.1757 91.6552Z" fill="#EDEDED"/>
<path d="M93.1074 88.2067H48.2798C46.3833 88.2067 44.8315 89.7584 44.8315 91.655V102H96.5557V91.655C96.5557 89.7584 95.004 88.2067 93.1074 88.2067Z" fill="#FDCB2A" stroke="#222222" stroke-width="3" stroke-miterlimit="10"/>
<path d="M86.2108 81.3102H55.1763C53.2798 81.3102 51.728 82.8619 51.728 84.7584V88.2067H89.6591V84.7584C89.6591 82.8619 88.1073 81.3102 86.2108 81.3102Z" fill="#FDCB2A" stroke="#222222" stroke-width="3" stroke-miterlimit="10"/>
<path d="M39.9196 42.7295L10.7456 71.9035L18.0361 79.1939L47.21 50.0199L39.9196 42.7295Z" fill="white" stroke="#222222" stroke-width="3" stroke-miterlimit="10"/>
<path d="M70.2973 39.0863H65.4353L50.849 24.5001V19.638L43.5559 12.3449L24.1077 31.7932L31.4008 39.0863H36.2628L50.849 53.6725V58.5346L58.1422 65.8277L77.5904 46.3794L70.2973 39.0863Z" fill="white" stroke="#222222" stroke-width="3" stroke-miterlimit="10"/>
<path d="M65.4329 39.086L63.0018 41.517L60.5708 43.9481" fill="#FDCB2A"/>
<path d="M65.4329 39.086L63.0018 41.517L60.5708 43.9481" stroke="#222222" stroke-width="3" stroke-miterlimit="10"/>
<path d="M45.9897 29.3619L48.4208 26.9309L50.8518 24.4999" fill="#FDCB2A"/>
<path d="M45.9897 29.3619L48.4208 26.9309L50.8518 24.4999" stroke="#222222" stroke-width="3" stroke-miterlimit="10"/>
<path d="M55.7278 48.7927L53.2968 51.2237L50.8657 53.6548" fill="#FDCB2A"/>
<path d="M55.7278 48.7927L53.2968 51.2237L50.8657 53.6548" stroke="#222222" stroke-width="3" stroke-miterlimit="10"/>
<path d="M36.2778 39.069L38.7089 36.638L41.1399 34.1897" fill="#FDCB2A"/>
<path d="M36.2778 39.069L38.7089 36.638L41.1399 34.1897" stroke="#222222" stroke-width="3" stroke-miterlimit="10"/>
<path d="M14.3802 87.708C13.7078 88.3804 12.6216 88.3804 11.9492 87.708L2.22501 77.9839C1.5526 77.3115 1.5526 76.2253 2.22501 75.5528L7.08708 70.6908C7.7595 70.0184 8.8457 70.0184 9.51812 70.6908L19.2423 80.4149C19.9147 81.0873 19.9147 82.1735 19.2423 82.8459L14.3802 87.708Z" fill="white" stroke="#222222" stroke-width="3" stroke-miterlimit="10"/>
<path d="M13.7964 14.069L31.0378 31.3103" stroke="#222222" stroke-width="3" stroke-miterlimit="10"/>
<path d="M41.3828 2L58.6242 19.2414" stroke="#222222" stroke-width="3" stroke-miterlimit="10"/>
<path d="M20.6929 2L34.486 15.7931" stroke="#222222" stroke-width="3" stroke-miterlimit="10"/>
</svg>
