<svg width="74" height="100" viewBox="0 0 74 100" fill="none" xmlns="http://www.w3.org/2000/svg">
<g clip-path="url(#clip0_140_36225)">
<path d="M37 57.5497C49.3179 57.5497 59.3179 47.5497 59.3179 35.2318C59.3179 22.9139 49.3179 12.9139 37 12.9139C24.6821 12.9139 14.6821 22.9139 14.6821 35.2318C14.6821 47.5497 24.6821 57.5497 37 57.5497ZM30.3775 32.9139C28.9205 34.702 26.4702 32.1854 27.8609 30.4636C30.7086 26.8874 33.5563 23.3113 36.4702 19.6689C37.4636 18.4106 39.5166 19.5364 39.5166 20.9272C39.5166 29.6689 39.5166 38.4106 39.5166 47.0861C41.702 47.0861 43.8212 47.0861 46.0066 47.0861C48.2583 47.0861 48.2583 50.596 46.0066 50.596C40.3775 50.596 34.8146 50.596 29.1854 50.596C26.9338 50.596 26.9338 47.0861 29.1854 47.0861C31.4371 47.0861 33.755 47.0861 36.0066 47.0861C36.0066 40.0662 36.0066 32.9801 36.0066 25.9603C34.0861 28.2781 32.2318 30.596 30.3775 32.9139Z" fill="#FDCB2A"/>
<path d="M48.3907 70.2649C47.8609 70.3973 47.3973 70.5298 46.9337 70.5298C45.0132 70.5298 43.0927 69.404 41.2384 68.3444C39.7152 67.4834 38.192 66.5563 37.0662 66.5563C35.9404 66.5563 34.4172 67.4834 32.894 68.3444C30.5761 69.6689 28.1258 71.0596 25.6755 70.2649C24.0861 69.7351 23.0265 68.4768 22.1655 67.0861C22.1655 76.2914 22.1655 85.4967 22.1655 94.702C26.6688 91.1921 31.2384 87.6159 35.7417 84.106C36.6026 83.4437 37.3973 83.4437 38.2582 84.106C42.7616 87.6159 47.3311 91.1921 51.8344 94.702C51.8344 85.4967 51.8344 76.2914 51.8344 67.0861C51.0397 68.543 49.9801 69.7351 48.3907 70.2649Z" fill="#EDEDED"/>
<path d="M6.73508 39.1391C8.32448 40.5298 9.98011 41.9867 10.5761 43.8411C11.1722 45.7616 10.7086 47.947 10.3112 50.0662C9.91389 51.9205 9.45031 53.9735 10.0463 54.8344C10.7086 55.6954 12.7616 55.894 14.6821 56.0927C16.8013 56.2914 19.053 56.5563 20.6424 57.7483C22.298 58.8742 23.1589 60.9271 24.0198 62.9139C24.8145 64.6358 25.6755 66.6225 26.6688 66.9536C27.596 67.2848 29.4503 66.2252 31.0397 65.298C32.9602 64.1722 34.947 63.0464 37 63.0464C39.053 63.0464 41.0397 64.1722 42.9602 65.298C44.5496 66.2252 46.3377 67.2848 47.3311 66.9536C48.3907 66.6225 49.2516 64.6358 49.9801 62.9139C50.841 60.9271 51.7682 58.9404 53.3576 57.7483C54.947 56.5563 57.1324 56.2914 59.3179 56.0927C61.1722 55.894 63.2914 55.6954 63.9536 54.8344C64.5496 53.9735 64.1523 51.9205 63.7549 50.1324C63.2914 47.947 62.7616 45.7616 63.4238 43.8411C64.0198 41.9867 65.6755 40.5298 67.2649 39.1391C68.7218 37.8808 70.3112 36.4238 70.3112 35.298C70.3112 34.1722 68.7218 32.7152 67.2649 31.4569C65.6755 30 64.0198 28.543 63.4238 26.6887C62.7616 24.7682 63.2914 22.5166 63.6887 20.3973C64.0861 18.6093 64.5496 16.5563 63.9536 15.6954C63.2914 14.8344 61.2384 14.6358 59.3179 14.4371C57.1987 14.1722 54.947 13.9735 53.2914 12.7815C51.702 11.5894 50.841 9.60264 49.9801 7.61589C49.1854 5.89404 48.3245 3.90728 47.2649 3.57615C46.3377 3.31125 44.5496 4.30463 42.9602 5.23178C41.0397 6.35761 39.053 7.48344 37 7.48344C34.947 7.48344 32.9602 6.35761 31.0397 5.23178C29.4503 4.30463 27.6622 3.31125 26.7351 3.57615C25.6755 3.90728 24.8145 5.89404 24.0198 7.61589C23.1589 9.60264 22.2318 11.5894 20.6424 12.7815C19.053 13.9735 16.8013 14.1722 14.6821 14.4371C12.8278 14.6358 10.7086 14.8344 10.0463 15.6954C9.45031 16.5563 9.91389 18.6093 10.245 20.3973C10.7086 22.5166 11.1722 24.7682 10.5761 26.6887C9.98011 28.543 8.32448 30 6.73508 31.3907C5.34435 32.649 3.68872 34.106 3.68872 35.2318C3.68872 36.4238 5.34435 37.8146 6.73508 39.1391ZM37 9.40397C51.2384 9.40397 62.8278 20.9934 62.8278 35.2318C62.8278 49.4702 51.2384 61.0596 37 61.0596C22.7616 61.0596 11.1722 49.4702 11.1722 35.2318C11.1722 20.9934 22.7616 9.40397 37 9.40397Z" fill="#EDEDED"/>
<path d="M4.41712 41.7219C5.6754 42.8477 6.93368 43.9735 7.19858 44.9007C7.5297 45.9603 7.19858 47.6821 6.80123 49.3377C6.27143 51.9205 5.6754 54.7682 7.19858 56.8874C8.78798 59.0728 11.7019 59.3377 14.2847 59.6026C15.9403 59.8013 17.7284 59.9338 18.5893 60.596C18.5893 73.1788 18.5893 85.7616 18.5893 98.3444C18.5893 100 20.4436 100.464 21.6357 99.6026C26.735 95.6291 31.9006 91.5894 36.9999 87.6159C42.0992 91.5894 47.2648 95.6291 52.3641 99.6026C53.49 100.53 55.4105 100 55.4105 98.3444C55.4105 85.7616 55.4105 73.1788 55.4105 60.596C56.2714 60 57.9933 59.8013 59.6489 59.6026C62.2317 59.3377 65.2118 59.0066 66.735 56.8874C68.2582 54.7682 67.6622 51.9205 67.1324 49.3377C66.8012 47.6821 66.4039 45.9603 66.735 44.9007C67.0661 43.9735 68.3244 42.8477 69.5165 41.7219C71.5032 39.9338 73.7549 37.947 73.7549 35.2318C73.7549 32.5166 71.5032 30.5298 69.5165 28.7417C68.3906 27.6821 67.0661 26.4901 66.8012 25.5629C66.4701 24.5695 66.8675 22.7815 67.1986 21.1258C67.7284 18.6093 68.3244 15.6954 66.8012 13.5762C65.2118 11.457 62.2979 11.1921 59.7151 10.9272C57.9933 10.7285 56.2714 10.5298 55.4105 9.93377C54.5496 9.33775 53.8873 7.74834 53.1588 6.22516C52.0992 3.84106 50.9072 1.0596 48.3244 0.264899C45.9403 -0.596028 43.49 0.860926 41.1721 2.18543C39.6489 3.04636 38.1257 3.97351 36.9999 3.97351C35.8741 3.97351 34.3509 3.04636 32.8277 2.18543C30.5098 0.860926 28.0595 -0.529803 25.6092 0.264899C23.0264 1.12583 21.8343 3.84106 20.7747 6.22516C20.1125 7.74834 19.4502 9.33775 18.5893 9.93377C17.7284 10.5298 16.0065 10.7285 14.2847 10.9272C11.7019 11.1921 8.78798 11.457 7.19858 13.6424C5.6754 15.7616 6.27143 18.6093 6.80123 21.1258C7.13235 22.7815 7.5297 24.5033 7.19858 25.5629C6.93368 26.4901 5.60917 27.6821 4.41712 28.7417C2.43037 30.5298 0.178711 32.5166 0.178711 35.2318C0.178711 38.0132 2.43037 40 4.41712 41.7219ZM51.8343 94.702C47.331 91.1921 42.7615 87.6159 38.2582 84.106C37.3973 83.4437 36.6026 83.4437 35.7416 84.106C31.2383 87.6159 26.6688 91.1921 22.1655 94.702C22.1655 85.4967 22.1655 76.2914 22.1655 67.0861C23.0264 68.543 24.086 69.8013 25.6754 70.2649C28.1257 71.0596 30.5761 69.6689 32.8939 68.3444C34.4171 67.4834 35.9403 66.5563 37.0661 66.5563C38.192 66.5563 39.7151 67.4834 41.2383 68.3444C43.0926 69.404 45.0131 70.5298 46.9337 70.5298C47.3973 70.5298 47.9271 70.4636 48.3906 70.2649C49.98 69.7351 51.0396 68.4768 51.9006 67.0861C51.8343 76.2914 51.8343 85.4967 51.8343 94.702ZM6.735 31.3907C8.32441 30 9.98004 28.543 10.5761 26.6887C11.1721 24.7682 10.7085 22.5166 10.2449 20.3974C9.91381 18.6093 9.45023 16.5563 10.0463 15.6954C10.7085 14.8344 12.7615 14.6358 14.682 14.4371C16.8675 14.2384 19.0529 13.9735 20.7085 12.7815C22.2979 11.5894 23.1588 9.60265 24.0198 7.61589C24.8145 5.89404 25.6754 3.90728 26.6688 3.57616C27.6622 3.31126 29.4502 4.30463 31.0396 5.23179C32.9602 6.35761 34.9469 7.48344 36.9999 7.48344C39.0529 7.48344 41.0396 6.35761 42.9602 5.23179C44.5496 4.30463 46.3377 3.31126 47.2648 3.57616C48.3244 3.90728 49.1853 5.89404 49.9138 7.61589C50.7747 9.60265 51.7019 11.5894 53.2913 12.7815C54.8807 13.9735 57.1324 14.1722 59.3178 14.4371C61.1721 14.6358 63.2913 14.8344 63.9535 15.6954C64.5496 16.5563 64.086 18.6093 63.6886 20.3974C63.2913 22.5166 62.7615 24.7682 63.4237 26.6887C64.0198 28.543 65.6754 30 67.2648 31.3907C68.7218 32.649 70.3112 34.106 70.3112 35.2318C70.3112 36.3576 68.7218 37.8146 67.2648 39.0728C65.6754 40.5298 64.0198 41.9868 63.4237 43.8411C62.7615 45.7616 63.2913 47.947 63.6886 50.1325C64.086 51.9205 64.4833 54.0397 63.8873 54.8344C63.2251 55.6954 61.1721 55.894 59.2516 56.0927C57.1324 56.2914 54.9469 56.5563 53.2913 57.7483C51.7019 58.8742 50.841 60.9271 49.98 62.9139C49.1853 64.6358 48.3244 66.6225 47.331 66.9536C46.3377 67.2185 44.5496 66.1589 42.9602 65.298C41.0396 64.1722 39.0529 63.0464 36.9999 63.0464C34.9469 63.0464 32.9602 64.1722 31.0396 65.298C29.4502 66.2252 27.6622 67.2848 26.6688 66.9536C25.6754 66.5563 24.8145 64.6358 24.0198 62.9139C23.1588 60.9271 22.2317 58.9404 20.6423 57.7483C19.0529 56.5563 16.8012 56.2914 14.682 56.0927C12.8277 55.894 10.7085 55.6954 10.0463 54.8344C9.45023 53.9735 9.91381 51.9205 10.2449 50.1325C10.7085 48.0132 11.1721 45.8278 10.5098 43.9073C9.91381 42.053 8.25818 40.596 6.66878 39.2053C5.34427 37.8146 3.68864 36.4238 3.68864 35.2318C3.68864 34.106 5.34427 32.649 6.735 31.3907Z" fill="#222222"/>
<path d="M36.9999 61.1258C51.2383 61.1258 62.8277 49.5364 62.8277 35.298C62.8277 21.0596 51.2383 9.4702 36.9999 9.4702C22.7615 9.4702 11.1721 21.0596 11.1721 35.298C11.1721 49.5364 22.7615 61.1258 36.9999 61.1258ZM36.9999 12.9139C49.3178 12.9139 59.3178 22.9139 59.3178 35.2318C59.3178 47.5497 49.3178 57.5497 36.9999 57.5497C24.6821 57.5497 14.6821 47.5497 14.6821 35.2318C14.6821 22.9801 24.6821 12.9139 36.9999 12.9139Z" fill="#222222"/>
<path d="M29.1192 47.0861C26.8675 47.0861 26.8675 50.596 29.1192 50.596C34.7483 50.596 40.3112 50.596 45.9404 50.596C48.192 50.596 48.192 47.0861 45.9404 47.0861C43.7549 47.0861 41.6357 47.0861 39.4503 47.0861C39.4503 38.3444 39.4503 29.6027 39.4503 20.9272C39.4503 19.5364 37.3973 18.4106 36.4039 19.6689C33.6225 23.245 30.7086 26.8212 27.8609 30.4636C26.4702 32.1854 28.9205 34.702 30.3774 32.9139C32.2317 30.596 34.0861 28.2782 35.9404 25.894C35.9404 32.9139 35.9404 40 35.9404 47.0199C33.6887 47.0861 31.3708 47.0861 29.1192 47.0861Z" fill="#222222"/>
</g>
<defs>
<clipPath id="clip0_140_36225">
<rect width="73.6424" height="100" fill="white" transform="translate(0.178711)"/>
</clipPath>
</defs>
</svg>
