<svg width="110" height="104" viewBox="0 0 110 104" fill="none" xmlns="http://www.w3.org/2000/svg">
<path d="M69.5833 102C91.4446 102 109.167 84.2783 109.167 62.417C109.167 40.5557 91.4446 22.8337 69.5833 22.8337C47.7221 22.8337 30 40.5557 30 62.417C30 84.2783 47.7221 102 69.5833 102Z" fill="#EDEDED"/>
<path d="M75.8333 60.333H55V102H75.8333V60.333Z" fill="white" stroke="#222222" stroke-width="3" stroke-miterlimit="10"/>
<path d="M96.6668 81.1664H75.8335V102H96.6668V81.1664Z" fill="#FDCB2A" stroke="#222222" stroke-width="3" stroke-miterlimit="10"/>
<path d="M55.0003 68.6664H34.167V102H55.0003V68.6664Z" fill="#FDCB2A" stroke="#222222" stroke-width="3" stroke-miterlimit="10"/>
<path d="M34.1668 43.6664H13.3335V102H34.1668V43.6664Z" fill="white" stroke="#222222" stroke-width="3" stroke-miterlimit="10"/>
<path d="M109.167 102H0.833496" stroke="#222222" stroke-width="3" stroke-miterlimit="10"/>
<path d="M82.3335 39.4583L79.2293 47.25L80.6252 47.8333L98.7502 39.375L91.5002 20.5208L90.1043 19.9375L87.0002 27.75L24.2502 2L19.5835 13.7083L82.3335 39.4583Z" fill="#FDCB2A" stroke="#222222" stroke-width="3" stroke-miterlimit="10"/>
</svg>
