<svg width="120" height="102" viewBox="0 0 120 102" fill="none" xmlns="http://www.w3.org/2000/svg">
<path d="M117.759 53.8519C117.759 79.6149 96.8741 100.5 71.111 100.5C45.348 100.5 24.4629 79.6149 24.4629 53.8519C24.4629 28.0888 45.348 7.2037 71.111 7.2037C96.8741 7.2037 117.759 28.0888 117.759 53.8519Z" fill="#EDEDED" stroke="#222222" stroke-width="3"/>
<path d="M71.1137 90.8889C91.5687 90.8889 108.151 74.3068 108.151 53.8519C108.151 33.3969 91.5687 16.8148 71.1137 16.8148C50.6587 16.8148 34.0767 33.3969 34.0767 53.8519C34.0767 74.3068 50.6587 90.8889 71.1137 90.8889Z" fill="#FDCB2A" stroke="#222222" stroke-width="3" stroke-miterlimit="10"/>
<path d="M71.1137 81.6296C86.455 81.6296 98.8915 69.1931 98.8915 53.8518C98.8915 38.5106 86.455 26.0741 71.1137 26.0741C55.7725 26.0741 43.3359 38.5106 43.3359 53.8518C43.3359 69.1931 55.7725 81.6296 71.1137 81.6296Z" fill="white" stroke="#222222" stroke-width="3" stroke-miterlimit="10"/>
<path d="M71.1138 53.8518L82.2249 42.7407" stroke="#222222" stroke-width="3" stroke-miterlimit="10"/>
<path d="M71.1139 57.5556C73.1594 57.5556 74.8176 55.8974 74.8176 53.8519C74.8176 51.8064 73.1594 50.1481 71.1139 50.1481C69.0684 50.1481 67.4102 51.8064 67.4102 53.8519C67.4102 55.8974 69.0684 57.5556 71.1139 57.5556Z" fill="white" stroke="#222222" stroke-width="3" stroke-miterlimit="10"/>
<path d="M80.373 2H61.8545V7.55556H80.373V2Z" fill="#FDCB2A" stroke="#222222" stroke-width="3" stroke-miterlimit="10"/>
<path d="M67.0566 11.611V9.05545H75.1678V11.611H67.0566Z" fill="white" stroke="#222222" stroke-width="3"/>
<path d="M65.5566 13.111V7.55545H76.6678V13.111" stroke="#222222" stroke-width="3" stroke-miterlimit="10"/>
<path d="M47.0399 26.0744L41.4844 20.5189" stroke="#222222" stroke-width="3" stroke-miterlimit="10"/>
<path d="M37.7808 24.2226L45.1882 16.8152" stroke="#222222" stroke-width="3" stroke-miterlimit="10"/>
<path d="M32.2221 35.3333H13.7036" stroke="#222222" stroke-width="3" stroke-miterlimit="10"/>
<path d="M28.5185 59.4074H0.740723" stroke="#222222" stroke-width="3" stroke-miterlimit="10"/>
<path d="M32.2222 70.5185H10" stroke="#222222" stroke-width="3" stroke-miterlimit="10"/>
</svg>
