<svg width="106" height="105" viewBox="0 0 106 105" fill="none" xmlns="http://www.w3.org/2000/svg">
<path d="M64.7142 87.7143C87.3974 87.7143 105.786 69.326 105.786 46.6429C105.786 23.9597 87.3974 5.57143 64.7142 5.57143C42.0311 5.57143 23.6428 23.9597 23.6428 46.6429C23.6428 69.326 42.0311 87.7143 64.7142 87.7143Z" fill="#EDEDED"/>
<path d="M37.9287 65.8036L44.8216 59.1429L53.6787 61.0714L59.7323 59.1429L72.2501 62.4821L77.2144 69.8929L53.0359 77L37.9287 65.8036Z" fill="#FDCB2A" stroke="#222222" stroke-width="3" stroke-miterlimit="10"/>
<path d="M78.7679 41.0714C73.8393 46 66.5 46.6429 66.5 46.6429C66.5 46.6429 67.1429 39.3036 72.0893 34.3572C77 29.4286 84.3571 28.7857 84.3571 28.7857C84.3571 28.7857 83.6964 36.125 78.7679 41.0714Z" fill="white" stroke="#222222" stroke-width="3" stroke-miterlimit="10"/>
<path d="M48.8571 42.8571C51.8214 45.8036 52.2143 50.2143 52.2143 50.2143C52.2143 50.2143 47.8036 49.8214 44.8571 46.8571C41.8929 43.9107 41.5 39.5 41.5 39.5C41.5 39.5 45.9107 39.8929 48.8571 42.8571Z" fill="white" stroke="#222222" stroke-width="3" stroke-miterlimit="10"/>
<path d="M59.3572 30.5714V59.1429" stroke="#222222" stroke-width="3" stroke-miterlimit="10"/>
<path d="M55.7858 34.1429C64.6618 34.1429 71.8572 26.9474 71.8572 18.0714C71.8572 9.19542 64.6618 2 55.7858 2C46.9098 2 39.7144 9.19542 39.7144 18.0714C39.7144 26.9474 46.9098 34.1429 55.7858 34.1429Z" fill="#FDCB2A" stroke="#222222" stroke-width="3" stroke-miterlimit="10"/>
<path d="M59.3572 15.3931C59.3572 13.911 57.7501 12.7146 55.7858 12.7146C53.8036 12.7146 52.2144 13.911 52.2144 15.3931C52.2144 16.8753 53.8215 18.0717 55.7858 18.0717C57.7501 18.0717 59.3572 19.2681 59.3572 20.7503C59.3572 22.2324 57.7501 23.4289 55.7858 23.4289C53.8036 23.4289 52.2144 22.2324 52.2144 20.7503" stroke="#222222" stroke-width="3" stroke-miterlimit="10"/>
<path d="M55.7859 12.7146V9.14314" stroke="#222222" stroke-width="3" stroke-miterlimit="10"/>
<path d="M55.7859 27.0003V23.4289" stroke="#222222" stroke-width="3" stroke-miterlimit="10"/>
<path d="M24.1072 102L2.21436 80.1607L12.3929 70.0179L34.2858 91.8393L24.1072 102Z" fill="#FDCB2A" stroke="#222222" stroke-width="3" stroke-miterlimit="10"/>
<path d="M91.5029 64.197C91.5029 61.3934 89.1279 59.1434 86.1994 59.1434C84.6101 59.1434 83.1994 59.822 82.2172 60.8934L68.5565 73.9291C68.5565 73.9291 68.5029 73.1434 68.5029 72.6434C68.5029 69.8398 66.1279 67.572 63.1994 67.572H48.7172C47.9851 65.6077 46.0386 64.197 43.7351 64.197H29.5922C28.1279 64.197 26.8065 64.7684 25.8601 65.6791L16.7529 74.3398L30.0386 87.5898H67.1458C68.7529 87.5898 70.1636 86.8934 71.1458 85.822L89.9494 67.8041C90.8958 66.8756 91.5029 65.6077 91.5029 64.197Z" fill="white" stroke="#222222" stroke-width="3" stroke-miterlimit="10"/>
<path d="M68.5358 72.7139C68.5358 75.5174 66.1608 77.7674 63.2322 77.7674H46.6965" fill="white"/>
<path d="M68.5358 72.7139C68.5358 75.5174 66.1608 77.7674 63.2322 77.7674H46.6965" stroke="#222222" stroke-width="3" stroke-miterlimit="10"/>
<path d="M11.8751 79.553C11.8751 79.7108 11.7472 79.8387 11.5894 79.8387C11.4316 79.8387 11.3037 79.7108 11.3037 79.553C11.3037 79.3952 11.4316 79.2673 11.5894 79.2673C11.7472 79.2673 11.8751 79.3952 11.8751 79.553Z" fill="#383A3A" stroke="#222222" stroke-width="3"/>
</svg>
