<svg width="78" height="70" viewBox="0 0 78 70" fill="none" xmlns="http://www.w3.org/2000/svg">
<path d="M1 17.5107L39.1818 1.60156L77.3636 17.5107" stroke="white" stroke-width="3" stroke-miterlimit="10" stroke-linejoin="round"/>
<path d="M72.5909 36.6016H5.77271V60.4652H72.5909V36.6016Z" stroke="white" stroke-width="3" stroke-miterlimit="10" stroke-linejoin="round"/>
<path d="M66.2273 36.6017H12.1364L18.5 17.5107H59.8636L66.2273 36.6017Z" stroke="white" stroke-width="3" stroke-miterlimit="10" stroke-linejoin="round"/>
<path d="M24.8636 60.4653H12.1364V68.4199H24.8636V60.4653Z" stroke="white" stroke-width="3" stroke-miterlimit="10" stroke-linejoin="round"/>
<path d="M66.2273 60.4653H53.5V68.4199H66.2273V60.4653Z" stroke="white" stroke-width="3" stroke-miterlimit="10" stroke-linejoin="round"/>
<path d="M64.1113 27.0562H72.5909" stroke="white" stroke-width="3" stroke-miterlimit="10" stroke-linejoin="round"/>
<path d="M5.77271 27.0562H14.2682" stroke="white" stroke-width="3" stroke-miterlimit="10" stroke-linejoin="round"/>
<path d="M58.2728 52.5106C60.03 52.5106 61.4546 51.0861 61.4546 49.3288C61.4546 47.5715 60.03 46.147 58.2728 46.147C56.5155 46.147 55.0909 47.5715 55.0909 49.3288C55.0909 51.0861 56.5155 52.5106 58.2728 52.5106Z" stroke="white" stroke-width="3" stroke-miterlimit="10" stroke-linejoin="round"/>
<path d="M20.0909 52.5106C21.8481 52.5106 23.2727 51.0861 23.2727 49.3288C23.2727 47.5715 21.8481 46.147 20.0909 46.147C18.3336 46.147 16.9091 47.5715 16.9091 49.3288C16.9091 51.0861 18.3336 52.5106 20.0909 52.5106Z" stroke="white" stroke-width="3" stroke-miterlimit="10" stroke-linejoin="round"/>
</svg>
