<svg width="80" height="72" viewBox="0 0 80 72" fill="none" xmlns="http://www.w3.org/2000/svg">
<path d="M74.0427 38.403H73.4804C72.9865 38.403 72.5758 38.7795 72.5171 39.2734C72.1162 42.8526 71.148 46.2411 69.7007 49.3558C66.6691 55.8492 61.5546 61.1741 55.2225 64.4843C55.0465 64.5772 54.8753 64.675 54.6944 64.763C54.6406 64.7924 54.5819 64.8168 54.5233 64.8413C50.1911 66.9634 45.3308 68.1516 40.2064 68.1516C24.2026 68.1516 10.5117 56.2257 8.0913 40.6229C8.88342 41.4982 9.67066 42.3685 10.4628 43.2438C11.5874 44.4857 13.421 42.6423 12.3013 41.4053C10.6535 39.5863 9.01055 37.7625 7.36275 35.9435C6.7711 35.2932 5.75895 35.5426 5.31888 36.2076C3.94978 38.2906 2.58557 40.3736 1.21648 42.4565C0.297226 43.8599 2.54646 45.1654 3.46082 43.767C4.16004 42.701 4.85926 41.6351 5.55847 40.5691C6.6782 48.4855 10.4774 55.7759 16.4037 61.2865C22.902 67.3203 31.3513 70.6453 40.2015 70.6453C48.6313 70.6453 56.7383 67.6137 63.1046 62.0933C60.958 63.9514 58.5768 65.5454 56.0244 66.8362C63.0117 63.2766 68.6494 57.4433 71.9597 50.3191C70.6982 53.0573 69.0993 55.5999 67.2119 57.8882C71.5294 52.6563 74.2529 46.2753 74.9962 39.4885C75.0255 39.2098 74.9375 38.9311 74.7517 38.7257C74.5757 38.5204 74.3165 38.403 74.0427 38.403ZM72.9768 47.8889C72.8936 48.1041 72.8154 48.3241 72.7274 48.5392C72.8105 48.3192 72.8936 48.1041 72.9768 47.8889ZM73.2946 47.0088C73.2897 47.0235 73.2848 47.0332 73.2799 47.0479C73.2848 47.0332 73.2897 47.0235 73.2946 47.0088ZM54.8069 67.4279C55.1296 67.2812 55.4523 67.1296 55.7701 66.9732C55.4523 67.1296 55.1345 67.2812 54.8069 67.4279ZM52.3914 68.4303C52.499 68.3912 52.6016 68.3569 52.7092 68.3129C52.6016 68.3569 52.499 68.3912 52.3914 68.4303ZM53.5942 67.9609C53.8143 67.868 54.0392 67.7799 54.2543 67.6822C54.0343 67.7751 53.8143 67.868 53.5942 67.9609ZM72.5073 49.0771C72.3411 49.4829 72.1651 49.879 71.9842 50.2751C72.1651 49.8839 72.3411 49.4829 72.5073 49.0771Z" fill="white" stroke="white" stroke-width="0.978403"/>
<path d="M76.2139 27.0935C75.7445 28.1986 75.28 29.3085 74.8106 30.4136C73.6371 22.6146 69.8623 15.4415 64.0094 10.0043C57.516 3.97046 49.0618 0.645508 40.2115 0.645508C31.9432 0.645508 23.9828 3.56462 17.6752 8.88943C19.367 7.46166 21.2055 6.20502 23.1467 5.11463C16.3159 8.953 10.8982 15.0113 7.88128 22.3066C9.15747 19.2017 10.8591 16.3266 12.9225 13.7595C8.77119 18.923 6.15524 25.167 5.42668 31.8023C5.39734 32.081 5.48536 32.3597 5.67116 32.565C5.85208 32.7704 6.11612 32.8878 6.38994 32.8878H6.95225C7.4461 32.8878 7.85683 32.5113 7.91551 32.0174C8.31646 28.4382 9.2846 25.0497 10.727 21.9399C13.7684 15.422 18.9123 10.0776 25.2737 6.77222C25.4253 6.69398 25.572 6.61086 25.7236 6.53752C25.8067 6.4984 25.8898 6.45928 25.968 6.42017C30.2807 4.31762 35.1214 3.14411 40.2115 3.14411C56.3376 3.14411 70.1214 15.2557 72.3853 31.0346C71.383 30.2669 70.3806 29.4943 69.3733 28.7267C68.0482 27.7096 66.7476 29.9686 68.0629 30.971C70.009 32.4624 71.9599 33.9586 73.906 35.4548C74.6541 36.0269 75.5343 35.3521 75.8179 34.6774C76.786 32.3841 77.7542 30.086 78.7223 27.7928C79.3726 26.2427 76.8545 25.5729 76.2139 27.0935ZM24.4131 4.44475C24.0024 4.65501 23.5966 4.86526 23.1956 5.09018C23.5966 4.86526 24.0024 4.65012 24.4131 4.44475ZM29.5326 2.33732C29.4984 2.3471 29.4592 2.36177 29.425 2.37155C29.4641 2.36177 29.4984 2.35199 29.5326 2.33732ZM28.2613 2.77739C28.1244 2.82628 27.9923 2.87518 27.8554 2.92408C27.9923 2.87518 28.1244 2.82628 28.2613 2.77739ZM26.9802 3.27124C26.7504 3.36414 26.5206 3.46194 26.2956 3.55973C26.5206 3.46194 26.7504 3.36414 26.9802 3.27124ZM25.6942 3.82866C25.3715 3.97535 25.0537 4.12693 24.7407 4.2834C25.0537 4.12693 25.3715 3.97535 25.6942 3.82866ZM7.40698 23.5192C7.495 23.2747 7.59279 23.0303 7.68569 22.7858C7.59279 23.0303 7.49989 23.2747 7.40698 23.5192ZM7.03537 24.5803C7.06471 24.4971 7.08916 24.4189 7.1185 24.3358C7.08916 24.414 7.06471 24.4971 7.03537 24.5803Z" fill="white" stroke="white" stroke-width="0.978403"/>
<path d="M54.7232 37.2847H21.7581V49.0579H54.7232V37.2847Z" stroke="white" stroke-width="2.51324" stroke-miterlimit="10" stroke-linejoin="round"/>
<path d="M50.5399 34.1458L51.5838 37.2853H24.8977L28.0372 27.8667H42.95" stroke="white" stroke-width="2.51324" stroke-miterlimit="10" stroke-linejoin="round"/>
<path d="M31.1768 49.0576H24.8977V52.982H31.1768V49.0576Z" stroke="white" stroke-width="2.51324" stroke-miterlimit="10" stroke-linejoin="round"/>
<path d="M51.5838 49.0576H45.3047V52.982H51.5838V49.0576Z" stroke="white" stroke-width="2.51324" stroke-miterlimit="10" stroke-linejoin="round"/>
<path d="M21.7581 32.5757H25.9415" stroke="white" stroke-width="2.51324" stroke-miterlimit="10" stroke-linejoin="round"/>
<path d="M47.6594 45.1342C48.5263 45.1342 49.2291 44.4314 49.2291 43.5644C49.2291 42.6974 48.5263 41.9946 47.6594 41.9946C46.7924 41.9946 46.0896 42.6974 46.0896 43.5644C46.0896 44.4314 46.7924 45.1342 47.6594 45.1342Z" stroke="white" stroke-width="2.51324" stroke-miterlimit="10" stroke-linejoin="round"/>
<path d="M28.8222 45.1342C29.6892 45.1342 30.392 44.4314 30.392 43.5644C30.392 42.6974 29.6892 41.9946 28.8222 41.9946C27.9553 41.9946 27.2524 42.6974 27.2524 43.5644C27.2524 44.4314 27.9553 45.1342 28.8222 45.1342Z" stroke="white" stroke-width="2.51324" stroke-miterlimit="10" stroke-linejoin="round"/>
<path d="M57.078 26.2965C57.078 29.334 54.6213 31.7907 51.5838 31.7907C48.5463 31.7907 46.0896 29.334 46.0896 26.2965C46.0896 23.259 51.5838 15.3081 51.5838 15.3081C51.5838 15.3081 57.078 23.259 57.078 26.2965Z" stroke="white" stroke-width="2.51324" stroke-miterlimit="10" stroke-linejoin="round"/>
</svg>
