<svg width="78" height="131" viewBox="0 0 78 131" fill="none" xmlns="http://www.w3.org/2000/svg">
<g clip-path="url(#clip0_1_12396)">
<path d="M71.225 32.1953C66.325 32.1953 65.935 39.9153 65.945 42.5053H76.475V39.2453H76.485C76.485 32.1953 71.225 32.1953 71.225 32.1953Z" fill="#FDCB2A" stroke="#222222" stroke-width="0.5"/>
<path d="M55.505 93.7353H11.955H1.41504C1.41504 100.785 6.67504 100.785 6.67504 100.785H6.97504H60.765C60.765 100.785 55.505 100.785 55.505 93.7353Z" fill="#FDCB2A" stroke="#222222" stroke-width="0.5"/>
<path d="M11.955 94.9853C11.265 94.9853 10.705 94.4253 10.705 93.7353V43.3453C10.685 43.1053 10.315 35.8553 13.405 32.5853C14.435 31.4953 15.715 30.9453 17.215 30.9453H71.215C71.905 30.9453 72.465 31.5053 72.465 32.1953C72.465 32.8853 71.905 33.4453 71.215 33.4453H17.215C16.415 33.4453 15.775 33.7153 15.225 34.3053C13.275 36.3653 13.105 41.4753 13.205 43.2753V93.7353C13.205 94.4253 12.645 94.9853 11.955 94.9853Z" fill="#222222" stroke="#222222" stroke-width="0.5"/>
<path d="M60.775 102.035H6.67504C6.61504 102.035 0.165039 101.945 0.165039 93.7353C0.165039 93.0453 0.725039 92.4853 1.41504 92.4853H55.505C56.195 92.4853 56.755 93.0453 56.755 93.7353C56.755 99.4653 60.605 99.5353 60.765 99.5353C61.525 99.5353 62.135 99.2753 62.685 98.7053C64.685 96.6353 64.955 91.4053 64.895 89.5753L64.815 43.3453C64.795 43.1053 64.425 35.8553 67.515 32.5853C68.545 31.4953 69.825 30.9453 71.325 30.9453C71.395 30.9453 77.835 31.0353 77.835 39.2453C77.835 39.2953 77.835 39.3553 77.825 39.4053V42.5053C77.825 43.1953 77.265 43.7553 76.575 43.7553H67.315L67.385 89.5153C67.395 89.7853 67.625 97.1753 64.475 100.435C63.465 101.495 62.215 102.025 60.775 102.035ZM2.73504 94.9853C3.24504 99.4753 6.52504 99.5353 6.67504 99.5353H55.925C55.125 98.5053 54.485 97.0453 54.305 94.9853H2.73504ZM67.315 41.2553H75.325V39.2453C75.325 39.1953 75.325 39.1453 75.335 39.0953C75.265 33.5153 71.485 33.4453 71.325 33.4453C70.525 33.4453 69.885 33.7153 69.335 34.3053C67.895 35.8153 67.425 38.9753 67.315 41.2553Z" fill="#222222" stroke="#222222" stroke-width="0.5"/>
<path d="M57.015 45.6453H42.915C42.225 45.6453 41.665 45.0853 41.665 44.3953C41.665 43.7053 42.225 43.1453 42.915 43.1453H57.015C57.705 43.1453 58.265 43.7053 58.265 44.3953C58.265 45.0853 57.705 45.6453 57.015 45.6453Z" fill="#222222" stroke="#222222" stroke-width="0.5"/>
<path d="M36.715 84.5153H19.615C18.925 84.5153 18.365 83.9553 18.365 83.2653C18.365 82.5753 18.925 82.0153 19.615 82.0153H36.715C37.405 82.0153 37.965 82.5753 37.965 83.2653C37.965 83.9553 37.405 84.5153 36.715 84.5153Z" fill="#222222" stroke="#222222" stroke-width="0.5"/>
<path d="M57.015 54.6953H19.615C18.925 54.6953 18.365 54.1353 18.365 53.4453C18.365 52.7553 18.925 52.1953 19.615 52.1953H57.015C57.705 52.1953 58.265 52.7553 58.265 53.4453C58.265 54.1353 57.705 54.6953 57.015 54.6953Z" fill="#222222" stroke="#222222" stroke-width="0.5"/>
<path d="M57.015 64.9553H19.615C18.925 64.9553 18.365 64.3953 18.365 63.7053C18.365 63.0153 18.925 62.4553 19.615 62.4553H57.015C57.705 62.4553 58.265 63.0153 58.265 63.7053C58.265 64.3953 57.705 64.9553 57.015 64.9553Z" fill="#222222" stroke="#222222" stroke-width="0.5"/>
<path d="M57.015 75.3653H19.615C18.925 75.3653 18.365 74.8053 18.365 74.1153C18.365 73.4253 18.925 72.8653 19.615 72.8653H57.015C57.705 72.8653 58.265 73.4253 58.265 74.1153C58.265 74.8053 57.705 75.3653 57.015 75.3653Z" fill="#222222" stroke="#222222" stroke-width="0.5"/>
</g>
<defs>
<clipPath id="clip0_1_12396">
<rect width="77.67" height="71.09" fill="white" transform="translate(0.165039 30.9453)"/>
</clipPath>
</defs>
</svg>
