<svg width="99" height="131" viewBox="0 0 99 131" fill="none" xmlns="http://www.w3.org/2000/svg">
<g clip-path="url(#clip0_1_12438)">
<path d="M42.74 53.2104C40.12 51.6004 37.25 50.5904 34.31 50.1704L33.99 43.2604L25.61 43.6504L25.93 50.5604C23.05 51.2504 20.28 52.5204 17.82 54.3704L12.71 49.7104L7.04996 55.9104L12.17 60.5704C10.56 63.1904 9.54996 66.0704 9.12996 69.0004L2.20996 69.3304L2.58996 77.7204L9.50996 77.4004C10.2 80.2804 11.47 83.0504 13.32 85.5104L8.65996 90.6104L14.86 96.2604L19.52 91.1504C22.14 92.7604 25.02 93.7704 27.95 94.1904L28.27 101.1L36.65 100.71L36.33 93.8004C39.22 93.1104 41.98 91.8404 44.44 89.9904L49.55 94.6504L55.21 88.4504L50.1 83.7904C51.71 81.1704 52.72 78.2904 53.14 75.3604L60.06 75.0404L59.67 66.6504L52.76 66.9704C52.07 64.0904 50.8 61.3204 48.96 58.8604L53.62 53.7504L47.41 48.1004L42.74 53.2104ZM40.11 62.3304C45.55 67.2904 45.95 75.7204 40.98 81.1704C36.02 86.6104 27.58 87.0004 22.14 82.0404C16.7 77.0804 16.31 68.6504 21.27 63.2004C26.24 57.7604 34.67 57.3704 40.11 62.3304Z" fill="#F8D340"/>
<path d="M28.27 102.36C27.61 102.36 27.05 101.84 27.02 101.17L26.74 95.2704C24.27 94.8004 21.93 93.9604 19.75 92.7504L15.77 97.1104C15.55 97.3604 15.23 97.5004 14.9 97.5204C14.57 97.5404 14.25 97.4204 14 97.1904L7.79995 91.5404C7.28995 91.0804 7.24995 90.2804 7.71995 89.7704L11.7 85.4104C10.29 83.3504 9.23995 81.1004 8.54995 78.6904L2.63995 78.9704C2.30995 78.9904 1.97995 78.8704 1.73995 78.6404C1.48995 78.4204 1.34995 78.1004 1.32995 77.7704L0.959953 69.3804C0.929953 68.6904 1.45995 68.1104 2.14995 68.0704L8.04995 67.8004C8.50995 65.3404 9.35995 63.0004 10.57 60.8204L6.19995 56.8404C5.95995 56.6204 5.80995 56.3104 5.79995 55.9704C5.78995 55.6404 5.89995 55.3104 6.12995 55.0704L11.79 48.8704C12.26 48.3604 13.05 48.3204 13.56 48.7904L17.93 52.7704C20 51.3604 22.25 50.3004 24.65 49.6104L24.38 43.7104C24.35 43.0204 24.88 42.4404 25.57 42.4004L33.95 42.0104C34.64 41.9804 35.22 42.5104 35.26 43.2004L35.53 49.1004C37.99 49.5604 40.33 50.4104 42.51 51.6204L46.49 47.2504C46.96 46.7404 47.75 46.7004 48.26 47.1704L54.47 52.8204C54.9799 53.2804 55.02 54.0704 54.55 54.5904L50.57 58.9604C51.98 61.0204 53.03 63.2804 53.72 65.6804L59.62 65.4104C60.3 65.3704 60.89 65.9104 60.93 66.6004L61.32 74.9904C61.33 75.3204 61.22 75.6504 60.99 75.8904C60.77 76.1404 60.45 76.2804 60.12 76.3004L54.21 76.5704C53.75 79.0304 52.91 81.3704 51.69 83.5604L56.06 87.5304C56.31 87.7504 56.45 88.0704 56.47 88.4004C56.4799 88.7304 56.37 89.0604 56.14 89.3004L50.48 95.5004C50.01 96.0104 49.22 96.0504 48.71 95.5804L44.35 91.6004C42.29 93.0104 40.04 94.0604 37.63 94.7504L37.9 100.65C37.91 100.98 37.8 101.31 37.57 101.55C37.35 101.8 37.03 101.94 36.7 101.96L28.32 102.35C28.31 102.36 28.29 102.36 28.27 102.36ZM19.52 89.9104C19.74 89.9104 19.97 89.9704 20.17 90.0904C22.6 91.5804 25.27 92.5504 28.12 92.9604C28.71 93.0504 29.16 93.5404 29.19 94.1404L29.46 99.8004L35.35 99.5304L35.09 93.8704C35.06 93.2704 35.46 92.7404 36.05 92.6004C38.84 91.9304 41.42 90.7204 43.7 89.0104C44.18 88.6504 44.85 88.6804 45.29 89.0904L49.48 92.9104L53.45 88.5604L49.26 84.7404C48.82 84.3404 48.72 83.6704 49.04 83.1604C50.54 80.7204 51.5 78.0504 51.91 75.2104C51.99 74.6204 52.49 74.1704 53.09 74.1404L58.76 73.8804L58.48 67.9904L52.82 68.2504C52.23 68.2704 51.69 67.8804 51.55 67.2904C50.88 64.5004 49.68 61.9304 47.96 59.6404C47.6 59.1604 47.63 58.4904 48.04 58.0504L51.86 53.8604L47.5 49.8904L43.68 54.0804C43.28 54.5204 42.61 54.6204 42.1 54.3004C39.67 52.8104 36.99 51.8404 34.15 51.4304C33.56 51.3504 33.11 50.8504 33.08 50.2504L32.82 44.5904L26.93 44.8604L27.19 50.5204C27.22 51.1204 26.81 51.6504 26.23 51.7904C23.45 52.4604 20.87 53.6604 18.58 55.3804C18.1 55.7404 17.43 55.7104 16.99 55.3004L12.8 51.4804L8.80995 55.8304L13 59.6504C13.44 60.0504 13.54 60.7204 13.22 61.2304C11.72 63.6604 10.76 66.3404 10.35 69.1804C10.26 69.7704 9.76995 70.2204 9.16995 70.2504L3.50995 70.5104L3.77995 76.4004L9.44995 76.1404C10.08 76.1004 10.58 76.5204 10.72 77.1004C11.39 79.9004 12.6 82.4704 14.31 84.7504C14.67 85.2304 14.64 85.9004 14.23 86.3404L10.42 90.5304L14.77 94.5004L18.59 90.3104C18.84 90.0504 19.18 89.9104 19.52 89.9104Z" fill="#222222"/>
<path d="M31.13 86.7704C27.49 86.7704 24 85.4204 21.31 82.9704C15.37 77.5504 14.94 68.3104 20.36 62.3704C23.12 59.3404 27.05 57.6104 31.14 57.6104C34.78 57.6104 38.27 58.9604 40.96 61.4204C43.84 64.0404 45.53 67.6304 45.71 71.5204C45.89 75.4104 44.54 79.1404 41.92 82.0204C39.15 85.0404 35.22 86.7704 31.13 86.7704ZM31.14 60.1004C27.75 60.1004 24.49 61.5404 22.2 64.0504C17.71 68.9704 18.07 76.6304 22.99 81.1204C25.22 83.1504 28.11 84.2704 31.13 84.2704C34.52 84.2704 37.78 82.8304 40.07 80.3304C42.24 77.9404 43.36 74.8503 43.21 71.6304C43.06 68.4103 41.66 65.4304 39.28 63.2604C37.04 61.2204 34.15 60.1004 31.14 60.1004Z" fill="#222222"/>
<path d="M94.46 62.9803L96.79 57.1103L91.95 55.1903C92.37 53.0003 92.36 50.7103 91.86 48.4503L96.64 46.3903L94.14 40.5903L89.36 42.6503C88.06 40.7303 86.41 39.1503 84.53 37.9503L86.45 33.1203L80.58 30.7803L78.66 35.6203C76.47 35.2003 74.18 35.2103 71.92 35.7103L69.86 30.9303L64.06 33.4303L66.12 38.2103C64.2 39.5103 62.62 41.1603 61.42 43.0403L56.58 41.1203L54.25 46.9903L59.09 48.9103C58.67 51.1003 58.68 53.3903 59.19 55.6503L54.41 57.7103L56.91 63.5103L61.69 61.4503C62.99 63.3603 64.64 64.9503 66.52 66.1503L64.6 70.9903L70.47 73.3203L72.39 68.4803C74.58 68.9003 76.87 68.8903 79.12 68.3903L81.18 73.1703L86.98 70.6703L84.92 65.8903C86.83 64.5903 88.41 62.9403 89.61 61.0603L94.46 62.9803ZM79.49 61.2603C74.4 63.4503 68.5 61.1103 66.31 56.0203C64.12 50.9303 66.47 45.0303 71.56 42.8403C76.65 40.6503 82.55 42.9903 84.74 48.0803C86.93 53.1703 84.58 59.0703 79.49 61.2603Z" fill="#F8D340"/>
<path d="M70.47 74.5703C70.32 74.5703 70.16 74.5403 70.01 74.4803L64.1399 72.1503C63.8299 72.0303 63.58 71.7903 63.45 71.4803C63.32 71.1803 63.3099 70.8303 63.4399 70.5203L64.9899 66.6103C63.5699 65.5903 62.3199 64.3803 61.2599 62.9903L57.3999 64.6503C57.0999 64.7803 56.7499 64.7903 56.4399 64.6603C56.1299 64.5403 55.8899 64.3003 55.7499 63.9903L53.2499 58.1903C52.9799 57.5603 53.2699 56.8203 53.8999 56.5503L57.7499 54.8903C57.4699 53.1703 57.45 51.4303 57.68 49.6903L53.7799 48.1403C53.4699 48.0203 53.2299 47.7803 53.0899 47.4703C52.9599 47.1703 52.9499 46.8203 53.0799 46.5103L55.4099 40.6403C55.6699 40.0003 56.3899 39.6903 57.0299 39.9403L60.93 41.4903C61.96 40.0703 63.1699 38.8203 64.5599 37.7603L62.9099 33.9303C62.7799 33.6303 62.7699 33.2803 62.8999 32.9703C63.0199 32.6603 63.2599 32.4203 63.5699 32.2803L69.37 29.7803C70 29.5003 70.74 29.8003 71.01 30.4303L72.6699 34.2903C74.3799 34.0103 76.14 33.9903 77.87 34.2203L79.4199 30.3103C79.5399 30.0003 79.7799 29.7603 80.0899 29.6203C80.3899 29.4903 80.7399 29.4803 81.0499 29.6103L86.9199 31.9503C87.5599 32.2003 87.87 32.9303 87.62 33.5703L86.07 37.4703C87.4899 38.4903 88.7399 39.7103 89.7999 41.0903L93.6599 39.4303C93.9599 39.3003 94.31 39.2903 94.62 39.4203C94.93 39.5403 95.1699 39.7803 95.3099 40.0903L97.8099 45.8903C98.0799 46.5203 97.7899 47.2603 97.1599 47.5303L93.2999 49.1903C93.5799 50.9103 93.6 52.6603 93.37 54.3903L97.2699 55.9403C97.9099 56.1903 98.2299 56.9203 97.97 57.5603L95.6399 63.4303C95.3899 64.0703 94.6599 64.3903 94.0199 64.1303L90.12 62.5803C89.1 64.0003 87.88 65.2503 86.5 66.3103L88.1599 70.1703C88.4299 70.8003 88.14 71.5403 87.51 71.8103L81.7099 74.3103C81.08 74.5903 80.34 74.2903 80.07 73.6603L78.4 69.8003C76.69 70.0803 74.9299 70.1003 73.2099 69.8703L71.6599 73.7803C71.4299 74.2703 70.96 74.5703 70.47 74.5703ZM66.22 70.2903L69.7699 71.7003L71.2299 68.0203C71.4499 67.4603 72.0499 67.1403 72.6299 67.2503C74.6899 67.6503 76.82 67.6203 78.86 67.1703C79.45 67.0403 80.0399 67.3403 80.2799 67.8903L81.8499 71.5203L85.3499 70.0103L83.79 66.3803C83.55 65.8303 83.7399 65.1903 84.2399 64.8503C85.9799 63.6703 87.44 62.1603 88.58 60.3803C88.9 59.8703 89.5399 59.6703 90.0999 59.8903L93.7699 61.3503L95.18 57.8103L91.5 56.3503C90.9399 56.1303 90.6199 55.5403 90.7299 54.9503C91.1299 52.8803 91.1 50.7803 90.65 48.7203C90.52 48.1303 90.8199 47.5403 91.3799 47.3003L95.01 45.7303L93.5 42.2303L89.87 43.8003C89.32 44.0403 88.6699 43.8503 88.3399 43.3503C87.1599 41.6003 85.66 40.1403 83.87 39.0103C83.36 38.6903 83.1599 38.0503 83.3799 37.4903L84.8399 33.8203L81.2999 32.4103L79.8399 36.0903C79.6199 36.6503 79.03 36.9703 78.44 36.8603C76.39 36.4603 74.25 36.4903 72.2099 36.9503C71.6199 37.0803 71.03 36.7803 70.79 36.2303L69.22 32.6003L65.72 34.1103L67.29 37.7403C67.53 38.2903 67.3399 38.9303 66.8399 39.2703C65.0999 40.4503 63.6299 41.9603 62.4899 43.7403C62.1699 44.2403 61.5299 44.4503 60.9699 44.2303L57.2999 42.7703L55.8899 46.3103L59.5599 47.7703C60.1199 47.9903 60.4399 48.5803 60.3299 49.1703C59.9299 51.2503 59.9599 53.3503 60.4199 55.4103C60.5499 56.0003 60.2499 56.5903 59.6899 56.8303L56.0599 58.3903L57.5699 61.8903L61.2 60.3303C61.75 60.0903 62.3899 60.2803 62.7299 60.7803C63.9099 62.5303 65.4199 63.9903 67.1999 65.1203C67.7099 65.4403 67.91 66.0803 67.69 66.6403L66.22 70.2903Z" fill="#222222" stroke="#222222" stroke-width="0.5"/>
<path d="M75.5301 63.3403C71.0201 63.3403 66.9501 60.6603 65.1601 56.5203C62.7001 50.8003 65.3501 44.1503 71.0601 41.6903C72.4801 41.0803 73.9801 40.7703 75.5201 40.7703C80.0301 40.7703 84.1001 43.4503 85.8801 47.5903C87.0701 50.3603 87.1201 53.4203 86.0001 56.2203C84.8901 59.0203 82.7501 61.2203 79.9801 62.4103C78.5701 63.0203 77.0601 63.3403 75.5301 63.3403ZM75.5201 43.2703C74.3201 43.2703 73.1601 43.5103 72.0501 43.9903C67.6001 45.9003 65.5401 51.0803 67.4601 55.5303C68.8501 58.7503 72.0201 60.8403 75.5301 60.8403C76.7201 60.8403 77.8901 60.6003 79.0001 60.1203C81.1601 59.1903 82.8201 57.4803 83.6901 55.3003C84.5601 53.1203 84.5201 50.7303 83.5901 48.5803C82.2001 45.3503 79.0301 43.2703 75.5201 43.2703Z" fill="#222222" stroke="#222222" stroke-width="0.5"/>
<path d="M28.27 102.36C27.61 102.36 27.05 101.84 27.02 101.17L26.74 95.2704C24.27 94.8004 21.93 93.9604 19.75 92.7504L15.77 97.1104C15.55 97.3604 15.23 97.5004 14.9 97.5204C14.57 97.5404 14.25 97.4204 14 97.1904L7.79995 91.5404C7.28995 91.0804 7.24995 90.2804 7.71995 89.7704L11.7 85.4104C10.29 83.3504 9.23995 81.1004 8.54995 78.6904L2.63995 78.9704C2.30995 78.9904 1.97995 78.8704 1.73995 78.6404C1.48995 78.4204 1.34995 78.1004 1.32995 77.7704L0.959953 69.3804C0.929953 68.6904 1.45995 68.1104 2.14995 68.0704L8.04995 67.8004C8.50995 65.3404 9.35995 63.0004 10.57 60.8204L6.19995 56.8404C5.95995 56.6204 5.80995 56.3104 5.79995 55.9704C5.78995 55.6404 5.89995 55.3104 6.12995 55.0704L11.79 48.8704C12.26 48.3604 13.05 48.3204 13.56 48.7904L17.93 52.7704C20 51.3604 22.25 50.3004 24.65 49.6104L24.38 43.7104C24.35 43.0204 24.88 42.4404 25.57 42.4004L33.95 42.0104C34.64 41.9804 35.22 42.5104 35.26 43.2004L35.53 49.1004C37.99 49.5604 40.33 50.4104 42.51 51.6204L46.49 47.2504C46.96 46.7404 47.75 46.7004 48.26 47.1704L54.47 52.8204C54.9799 53.2804 55.02 54.0704 54.55 54.5904L50.57 58.9604C51.98 61.0204 53.03 63.2804 53.72 65.6804L59.62 65.4104C60.3 65.3704 60.89 65.9104 60.93 66.6004L61.32 74.9904C61.33 75.3204 61.22 75.6504 60.99 75.8904C60.77 76.1404 60.45 76.2804 60.12 76.3004L54.21 76.5704C53.75 79.0304 52.91 81.3704 51.69 83.5604L56.06 87.5304C56.31 87.7504 56.45 88.0704 56.47 88.4004C56.4799 88.7304 56.37 89.0604 56.14 89.3004L50.48 95.5004C50.01 96.0104 49.22 96.0504 48.71 95.5804L44.35 91.6004C42.29 93.0104 40.04 94.0604 37.63 94.7504L37.9 100.65C37.91 100.98 37.8 101.31 37.57 101.55C37.35 101.8 37.03 101.94 36.7 101.96L28.32 102.35C28.31 102.36 28.29 102.36 28.27 102.36ZM19.52 89.9104C19.74 89.9104 19.97 89.9704 20.17 90.0904C22.6 91.5804 25.27 92.5504 28.12 92.9604C28.71 93.0504 29.16 93.5404 29.19 94.1404L29.46 99.8004L35.35 99.5304L35.09 93.8704C35.06 93.2704 35.46 92.7404 36.05 92.6004C38.84 91.9304 41.42 90.7204 43.7 89.0104C44.18 88.6504 44.85 88.6804 45.29 89.0904L49.48 92.9104L53.45 88.5604L49.26 84.7404C48.82 84.3404 48.72 83.6704 49.04 83.1604C50.54 80.7204 51.5 78.0504 51.91 75.2104C51.99 74.6204 52.49 74.1704 53.09 74.1404L58.76 73.8804L58.48 67.9904L52.82 68.2504C52.23 68.2704 51.69 67.8804 51.55 67.2904C50.88 64.5004 49.68 61.9304 47.96 59.6404C47.6 59.1604 47.63 58.4904 48.04 58.0504L51.86 53.8604L47.5 49.8904L43.68 54.0804C43.28 54.5204 42.61 54.6204 42.1 54.3004C39.67 52.8104 36.99 51.8404 34.15 51.4304C33.56 51.3504 33.11 50.8504 33.08 50.2504L32.82 44.5904L26.93 44.8604L27.19 50.5204C27.22 51.1204 26.81 51.6504 26.23 51.7904C23.45 52.4604 20.87 53.6604 18.58 55.3804C18.1 55.7404 17.43 55.7104 16.99 55.3004L12.8 51.4804L8.80995 55.8304L13 59.6504C13.44 60.0504 13.54 60.7204 13.22 61.2304C11.72 63.6604 10.76 66.3404 10.35 69.1804C10.26 69.7704 9.76995 70.2204 9.16995 70.2504L3.50995 70.5104L3.77995 76.4004L9.44995 76.1404C10.08 76.1004 10.58 76.5204 10.72 77.1004C11.39 79.9004 12.6 82.4704 14.31 84.7504C14.67 85.2304 14.64 85.9004 14.23 86.3404L10.42 90.5304L14.77 94.5004L18.59 90.3104C18.84 90.0504 19.18 89.9104 19.52 89.9104Z" fill="#222222" stroke="#222222" stroke-width="0.5"/>
</g>
<defs>
<clipPath id="clip0_1_12438">
<rect width="97.08" height="72.83" fill="white" transform="translate(0.959961 29.5303)"/>
</clipPath>
</defs>
</svg>
