<svg width="78" height="131" viewBox="0 0 78 131" fill="none" xmlns="http://www.w3.org/2000/svg">
<g clip-path="url(#clip0_1_12419)">
<path d="M22.3556 42.9537C21.5449 43.7644 21.5449 45.0769 22.3556 45.8876C23.1663 46.6984 24.4788 46.6984 25.2896 45.8876C36.3505 34.8287 54.344 34.8287 65.403 45.8876C70.7612 51.244 73.711 58.3693 73.711 65.9453C73.711 73.5213 70.7612 80.6447 65.403 86.003C54.344 97.062 36.3525 97.0639 25.2896 86.003C24.4788 85.1923 23.1663 85.1923 22.3556 86.003C21.5449 86.8137 21.5449 88.1262 22.3556 88.937C28.6958 95.2772 37.0196 98.4473 45.3472 98.4453C53.673 98.4453 62.0006 95.2752 68.3389 88.937C74.4804 82.7955 77.863 74.6292 77.863 65.9453C77.863 57.2615 74.4804 49.0951 68.3389 42.9537C55.6604 30.2752 35.0341 30.2772 22.3556 42.9537Z" fill="#323232"/>
<path d="M25.9762 49.3175H2.21322C1.066 49.3175 0.137207 50.2463 0.137207 51.3935C0.137207 52.5407 1.066 53.4695 2.21322 53.4695H25.9762C27.1215 53.4695 28.0523 52.5407 28.0523 51.3935C28.0503 50.2463 27.1215 49.3175 25.9762 49.3175Z" fill="#FDCB2A"/>
<path d="M31.2697 59.0206H7.50473C6.35947 59.0206 5.42871 59.9494 5.42871 61.0966C5.42871 62.2439 6.35751 63.1727 7.50473 63.1727H31.2697C32.415 63.1727 33.3457 62.2439 33.3457 61.0966C33.3457 59.9494 32.415 59.0206 31.2697 59.0206Z" fill="#FDCB2A"/>
<path d="M31.2697 68.7198H7.50473C6.35947 68.7198 5.42871 69.6486 5.42871 70.7959C5.42871 71.9431 6.35751 72.8719 7.50473 72.8719H31.2697C32.415 72.8719 33.3457 71.9431 33.3457 70.7959C33.3457 69.6486 32.415 68.7198 31.2697 68.7198Z" fill="#FDCB2A"/>
<path d="M28.0503 80.499C28.0503 79.3518 27.1215 78.423 25.9743 78.423H2.21322C1.066 78.423 0.137207 79.3518 0.137207 80.499C0.137207 81.6463 1.066 82.5751 2.21322 82.5751H25.9762C27.1215 82.5731 28.0503 81.6463 28.0503 80.499Z" fill="#FDCB2A"/>
<path d="M45.3472 46.5764C44.202 46.5764 43.2712 47.5052 43.2712 48.6524V61.8385C41.7658 62.602 40.7229 64.1467 40.7229 65.9473C40.7229 68.4975 42.7969 70.5696 45.3472 70.5696C45.849 70.5696 46.3232 70.4692 46.7758 70.3217L52.7048 76.2782C53.1101 76.6855 53.6414 76.8901 54.1747 76.8901C54.704 76.8901 55.2334 76.6894 55.6387 76.286C56.4514 75.4773 56.4534 74.1628 55.6446 73.3521L49.7157 67.3956C49.8672 66.9371 49.9695 66.4569 49.9695 65.9492C49.9695 64.1487 48.9266 62.604 47.4213 61.8405V48.6524C47.4232 47.5052 46.4944 46.5764 45.3472 46.5764Z" fill="#323232"/>
</g>
<defs>
<clipPath id="clip0_1_12419">
<rect width="77.7257" height="65" fill="white" transform="translate(0.137207 33.4453)"/>
</clipPath>
</defs>
</svg>
