<svg width="81" height="131" viewBox="0 0 81 131" fill="none" xmlns="http://www.w3.org/2000/svg">
<path d="M35.2 109.365H58.23C59.39 109.365 60.7 108.495 61.16 107.435L62.66 103.945C63.12 102.885 63.49 101.065 63.49 99.9053V88.6053C63.49 87.4453 62.61 86.1653 61.53 85.7453L44.3 79.1453V62.4153C44.3 59.8953 42.26 57.8653 39.75 57.8653C37.23 57.8653 35.2 59.9053 35.2 62.4153V90.8753L27.12 81.7453C25.34 79.9653 22.46 79.9653 20.68 81.7453C18.9 83.5253 18.9 86.4053 20.68 88.1853L35.2 109.365Z" fill="#F8D340"/>
<path d="M58.23 110.615H35.2C34.79 110.615 34.4 110.415 34.17 110.075L19.71 88.9753C17.53 86.7053 17.56 83.0853 19.8 80.8553C20.9 79.7553 22.35 79.1553 23.9 79.1553C25.45 79.1553 26.91 79.7553 28.01 80.8553L33.96 87.5753V62.4153C33.96 59.2153 36.56 56.6153 39.76 56.6153C42.96 56.6153 45.56 59.2153 45.56 62.4153V78.2853L61.98 84.5853C63.53 85.1753 64.75 86.9453 64.75 88.6053V99.9053C64.75 101.225 64.34 103.215 63.82 104.435L62.32 107.925C61.66 109.465 59.9 110.615 58.23 110.615ZM35.85 108.115H58.23C58.89 108.115 59.75 107.545 60.01 106.935L61.51 103.445C61.9 102.535 62.24 100.885 62.24 99.9053V88.6053C62.24 87.9653 61.68 87.1453 61.08 86.9153L43.86 80.3053C43.38 80.1153 43.06 79.6553 43.06 79.1353V62.4153C43.06 60.5953 41.58 59.1153 39.76 59.1153C37.94 59.1153 36.46 60.5953 36.46 62.4153V90.8753C36.46 91.3953 36.14 91.8553 35.65 92.0453C35.16 92.2253 34.61 92.0953 34.27 91.7053L26.19 82.5753C25.62 82.0053 24.79 81.6653 23.9 81.6653C23.02 81.6653 22.19 82.0053 21.56 82.6353C20.27 83.9253 20.27 86.0153 21.56 87.3053C21.61 87.3553 21.66 87.4153 21.71 87.4853L35.85 108.115Z" fill="#231815"/>
<path d="M40.4999 51.0353C39.8099 51.0353 39.2499 50.4753 39.2499 49.7853V42.6453C39.2499 41.9553 39.8099 41.3953 40.4999 41.3953C41.1899 41.3953 41.7499 41.9553 41.7499 42.6453V49.7853C41.7499 50.4753 41.1899 51.0353 40.4999 51.0353Z" fill="#231815" stroke="black"/>
<path d="M52.3599 52.3053C52.1799 52.3053 52.0099 52.2653 51.8399 52.1853C51.2099 51.8953 50.9399 51.1553 51.2299 50.5253L53.7199 45.1453C54.0099 44.5153 54.7499 44.2453 55.3799 44.5353C56.0099 44.8253 56.2799 45.5653 55.9899 46.1953L53.4999 51.5753C53.2899 52.0353 52.8299 52.3053 52.3599 52.3053Z" fill="#231815" stroke="black"/>
<path d="M61.7299 60.5053C61.4099 60.5053 61.0799 60.3753 60.8399 60.1253C60.3599 59.6353 60.3699 58.8453 60.8599 58.3553L64.7699 54.5253C65.2599 54.0453 66.0499 54.0553 66.5399 54.5453C67.0199 55.0353 67.0099 55.8253 66.5199 56.3153L62.6099 60.1453C62.3699 60.3853 62.0499 60.5053 61.7299 60.5053Z" fill="#231815" stroke="black"/>
<path d="M28.6399 52.3053C28.1699 52.3053 27.7199 52.0353 27.4999 51.5753L25.0099 46.1953C24.7199 45.5653 24.9899 44.8253 25.6199 44.5353C26.2499 44.2453 26.9899 44.5153 27.2799 45.1453L29.7699 50.5253C30.0599 51.1553 29.7899 51.8953 29.1599 52.1853C28.9999 52.2653 28.8199 52.3053 28.6399 52.3053Z" fill="#231815" stroke="black"/>
<path d="M19.8099 60.9253C19.4999 60.9253 19.1899 60.8153 18.9499 60.5753L14.5099 56.3353C14.0099 55.8553 13.9899 55.0653 14.4699 54.5653C14.9499 54.0653 15.7399 54.0453 16.2399 54.5253L20.6799 58.7653C21.1799 59.2453 21.1999 60.0353 20.7199 60.5353C20.4699 60.7953 20.1399 60.9253 19.8099 60.9253Z" fill="#231815" stroke="black"/>
<path d="M76.1 86.4553H65.83C65.14 86.4553 64.58 85.8953 64.58 85.2053C64.58 84.5153 65.14 83.9553 65.83 83.9553H76.11C76.98 83.9553 77.68 83.2453 77.68 82.3853V35.0153C77.68 34.1453 76.97 33.4453 76.11 33.4453H4.89996C4.03996 33.4453 3.32996 34.1553 3.32996 35.0153V82.3753C3.32996 83.2453 4.03996 83.9453 4.89996 83.9453H15.01C15.7 83.9453 16.26 84.5053 16.26 85.1953C16.26 85.8853 15.7 86.4453 15.01 86.4453H4.89996C2.65996 86.4553 0.829956 84.6253 0.829956 82.3753V35.0153C0.829956 32.7753 2.65996 30.9453 4.89996 30.9453H76.1C78.35 30.9453 80.17 32.7753 80.17 35.0153V82.3753C80.18 84.6253 78.35 86.4553 76.1 86.4553Z" fill="#222222" stroke="#222222" stroke-width="0.5"/>
</svg>
