<svg width="18" height="19" viewBox="0 0 18 19" fill="none" xmlns="http://www.w3.org/2000/svg">
<path d="M9 16.7C7.09044 16.7 5.25909 15.9414 3.90883 14.5912C2.55857 13.2409 1.8 11.4096 1.8 9.5C1.8 7.59044 2.55857 5.75909 3.90883 4.40883C5.25909 3.05857 7.09044 2.3 9 2.3C10.9096 2.3 12.7409 3.05857 14.0912 4.40883C15.4414 5.75909 16.2 7.59044 16.2 9.5C16.2 11.4096 15.4414 13.2409 14.0912 14.5912C12.7409 15.9414 10.9096 16.7 9 16.7ZM9 0.5C7.8181 0.5 6.64778 0.732792 5.55585 1.18508C4.46392 1.63738 3.47177 2.30031 2.63604 3.13604C0.948211 4.82387 0 7.11305 0 9.5C0 11.8869 0.948211 14.1761 2.63604 15.864C3.47177 16.6997 4.46392 17.3626 5.55585 17.8149C6.64778 18.2672 7.8181 18.5 9 18.5C11.3869 18.5 13.6761 17.5518 15.364 15.864C17.0518 14.1761 18 11.8869 18 9.5C18 8.3181 17.7672 7.14778 17.3149 6.05585C16.8626 4.96392 16.1997 3.97177 15.364 3.13604C14.5282 2.30031 13.5361 1.63738 12.4442 1.18508C11.3522 0.732792 10.1819 0.5 9 0.5Z" fill="#837F7E"/>
</svg>
