<svg width="19" height="19" viewBox="0 0 19 19" fill="none" xmlns="http://www.w3.org/2000/svg">
<path d="M7.52413 14.1572L2.82155 9.4546L4.14768 8.11907L7.52413 11.4955L14.6627 4.357L15.9888 5.69254M9.40517 0.0494385C8.17006 0.0494385 6.94705 0.29271 5.80596 0.765364C4.66488 1.23802 3.62806 1.9308 2.75471 2.80415C0.990899 4.56796 0 6.9602 0 9.4546C0 11.949 0.990899 14.3413 2.75471 16.1051C3.62806 16.9784 4.66488 17.6712 5.80596 18.1438C6.94705 18.6165 8.17006 18.8598 9.40517 18.8598C11.8996 18.8598 14.2918 17.8689 16.0556 16.1051C17.8194 14.3413 18.8103 11.949 18.8103 9.4546C18.8103 8.2195 18.5671 6.99649 18.0944 5.8554C17.6218 4.71432 16.929 3.6775 16.0556 2.80415C15.1823 1.9308 14.1455 1.23802 13.0044 0.765364C11.8633 0.29271 10.6403 0.0494385 9.40517 0.0494385V0.0494385Z" fill="#222222"/>
</svg>
