<svg width="20" height="19" viewBox="0 0 20 19" fill="none" xmlns="http://www.w3.org/2000/svg">
<path d="M9.61549 16.9787C7.61997 16.9787 5.70618 16.186 4.29513 14.775C2.88408 13.3639 2.09136 11.4501 2.09136 9.4546C2.09136 7.45908 2.88408 5.54529 4.29513 4.13424C5.70618 2.72319 7.61997 1.93047 9.61549 1.93047C11.611 1.93047 13.5248 2.72319 14.9359 4.13424C16.3469 5.54529 17.1396 7.45908 17.1396 9.4546C17.1396 11.4501 16.3469 13.3639 14.9359 14.775C13.5248 16.186 11.611 16.9787 9.61549 16.9787M9.61549 0.0494385C8.38039 0.0494385 7.15738 0.29271 6.01629 0.765364C4.8752 1.23802 3.83839 1.9308 2.96504 2.80415C1.20123 4.56796 0.210327 6.9602 0.210327 9.4546C0.210327 11.949 1.20123 14.3413 2.96504 16.1051C3.83839 16.9784 4.8752 17.6712 6.01629 18.1438C7.15738 18.6165 8.38039 18.8598 9.61549 18.8598C12.1099 18.8598 14.5021 17.8689 16.2659 16.1051C18.0298 14.3413 19.0207 11.949 19.0207 9.4546C19.0207 8.2195 18.7774 6.99649 18.3047 5.8554C17.8321 4.71432 17.1393 3.6775 16.2659 2.80415C15.3926 1.9308 14.3558 1.23802 13.2147 0.765364C12.0736 0.29271 10.8506 0.0494385 9.61549 0.0494385V0.0494385Z" fill="#222222"/>
</svg>
