<svg width="22" height="26" viewBox="0 0 22 26" fill="none" xmlns="http://www.w3.org/2000/svg">
<path d="M11 0.236816C5.31816 0.236816 0.772705 4.78227 0.772705 10.4641V18.4186C0.772705 19.3228 1.13188 20.1899 1.7712 20.8292C2.41053 21.4686 3.27765 21.8277 4.1818 21.8277H7.59089V12.7368H3.04543V10.4641C3.04543 8.35441 3.8835 6.33114 5.37526 4.83938C6.86703 3.34761 8.8903 2.50954 11 2.50954C13.1097 2.50954 15.1329 3.34761 16.6247 4.83938C18.1165 6.33114 18.9545 8.35441 18.9545 10.4641V12.7368H14.4091V21.8277H18.9545V22.9641H11V25.2368H17.8182C18.7223 25.2368 19.5894 24.8776 20.2288 24.2383C20.8681 23.599 21.2272 22.7319 21.2272 21.8277V10.4641C21.2272 4.78227 16.6477 0.236816 11 0.236816Z" fill="#222222"/>
</svg>
