<svg width="26" height="27" viewBox="0 0 26 27" fill="none" xmlns="http://www.w3.org/2000/svg">
<path d="M17.3333 13.5H20.2222C20.2222 11.5845 19.4613 9.74755 18.1069 8.39312C16.7525 7.03869 14.9155 6.27778 13 6.27778V9.16667C14.1493 9.16667 15.2515 9.62321 16.0641 10.4359C16.8768 11.2485 17.3333 12.3507 17.3333 13.5ZM23.1111 13.5H26C26 6.27778 20.1789 0.5 13 0.5V3.38889C18.5756 3.38889 23.1111 7.91 23.1111 13.5ZM24.5556 18.5556C22.75 18.5556 21.0167 18.2667 19.3989 17.7322C18.8933 17.5733 18.33 17.6889 17.9256 18.0933L14.7478 21.2711C10.66 19.1911 7.30889 15.84 5.22889 11.7522L8.40667 8.57444C8.81111 8.17 8.92667 7.60667 8.76778 7.10111C8.23333 5.48333 7.94444 3.75 7.94444 1.94444C7.94444 1.56135 7.79226 1.19395 7.52138 0.923068C7.25049 0.652182 6.88309 0.5 6.5 0.5H1.44444C1.06135 0.5 0.693954 0.652182 0.423068 0.923068C0.152182 1.19395 0 1.56135 0 1.94444C0 8.45698 2.5871 14.7028 7.19216 19.3078C11.7972 23.9129 18.043 26.5 24.5556 26.5C24.9386 26.5 25.306 26.3478 25.5769 26.0769C25.8478 25.806 26 25.4386 26 25.0556V20C26 19.6169 25.8478 19.2495 25.5769 18.9786C25.306 18.7077 24.9386 18.5556 24.5556 18.5556Z" fill="#FDCB2A"/>
</svg>
