<svg width="277" height="54" viewBox="0 0 277 54" fill="none" xmlns="http://www.w3.org/2000/svg">
<path d="M120.115 11.4062L115.001 18.2248V42.0898C115.001 43.9735 116.527 45.4991 118.411 45.4991H142.276C144.159 45.4991 145.685 43.9735 145.685 42.0898V18.2248L140.571 11.4062H120.115Z" stroke="#FDCB2A" stroke-width="2" stroke-linecap="round" stroke-linejoin="round"/>
<path d="M115.001 18.2266H145.685" stroke="#FDCB2A" stroke-width="2" stroke-linecap="round" stroke-linejoin="round"/>
<path d="M137.162 25.043C137.162 28.8102 134.11 31.8615 130.343 31.8615C126.576 31.8615 123.524 28.8102 123.524 25.043" stroke="#DEDEDE" stroke-width="2" stroke-linecap="round" stroke-linejoin="round"/>
<path d="M167.301 23.956C167.237 24.532 167.573 24.964 168.309 25.252C169.077 25.54 170.357 25.844 172.149 26.164C172.469 26.228 172.773 26.292 173.061 26.356C173.381 26.42 173.685 26.484 173.973 26.548C176.853 27.284 178.965 28.548 180.309 30.34C181.653 32.1 182.149 34.436 181.797 37.348C181.605 38.756 181.141 39.988 180.405 41.044C179.701 42.068 178.773 42.916 177.621 43.588C176.469 44.26 175.141 44.756 173.637 45.076C172.165 45.428 170.597 45.604 168.933 45.604C168.101 45.604 167.237 45.556 166.341 45.46C165.477 45.396 164.613 45.268 163.749 45.076C162.885 44.884 162.053 44.628 161.253 44.308C160.453 43.956 159.749 43.524 159.141 43.012C158.309 42.308 157.733 41.444 157.413 40.42C157.125 39.364 157.317 38.324 157.989 37.3C158.341 36.788 158.773 36.42 159.285 36.196C159.829 35.972 160.421 35.844 161.061 35.812C161.829 35.78 162.437 35.892 162.885 36.148C163.333 36.404 163.765 36.66 164.181 36.916C164.693 37.236 165.429 37.492 166.389 37.684C167.349 37.876 168.293 37.972 169.221 37.972C170.149 37.972 170.853 37.812 171.333 37.492C171.845 37.172 172.133 36.788 172.197 36.34C172.261 35.764 171.765 35.316 170.709 34.996C169.685 34.644 168.245 34.276 166.389 33.892C166.037 33.828 165.685 33.764 165.333 33.7C165.013 33.604 164.709 33.508 164.421 33.412C162.533 32.836 161.061 32.068 160.005 31.108C158.949 30.116 158.213 29.028 157.797 27.844C157.381 26.66 157.237 25.428 157.365 24.148C157.493 22.868 157.813 21.668 158.325 20.548C158.805 19.556 159.429 18.692 160.197 17.956C160.997 17.22 161.893 16.628 162.885 16.18C163.909 15.7 164.997 15.348 166.149 15.124C167.301 14.9 168.485 14.788 169.701 14.788C171.621 14.788 173.269 14.964 174.645 15.316C176.021 15.668 177.125 16.084 177.957 16.564C178.949 17.108 179.733 17.86 180.309 18.82C180.885 19.748 181.013 20.756 180.693 21.844C180.405 22.772 179.925 23.412 179.253 23.764C178.581 24.116 177.813 24.292 176.949 24.292C176.629 24.292 176.261 24.244 175.845 24.148C175.461 24.02 175.157 23.876 174.933 23.716C174.645 23.524 174.293 23.364 173.877 23.236C173.461 23.076 173.013 22.932 172.533 22.804C172.085 22.676 171.621 22.58 171.141 22.516C170.661 22.452 170.229 22.42 169.845 22.42C169.077 22.42 168.469 22.58 168.021 22.9C167.573 23.188 167.333 23.54 167.301 23.956ZM202.215 44.788V27.412C202.215 26.612 202.087 25.94 201.831 25.396C201.575 24.82 201.255 24.356 200.871 24.004C200.487 23.652 200.055 23.412 199.575 23.284C199.127 23.124 198.695 23.044 198.279 23.044C197.863 23.044 197.415 23.124 196.935 23.284C196.487 23.412 196.071 23.636 195.687 23.956C195.303 24.276 194.983 24.708 194.727 25.252C194.471 25.764 194.327 26.404 194.295 27.172V44.788H184.551V9.028C184.551 8.228 184.679 7.54 184.935 6.964C185.223 6.356 185.591 5.86 186.039 5.476C186.487 5.06 186.999 4.756 187.575 4.564C188.183 4.34 188.807 4.228 189.447 4.228C190.087 4.228 190.695 4.34 191.271 4.564C191.847 4.756 192.359 5.06 192.807 5.476C193.255 5.86 193.607 6.356 193.863 6.964C194.151 7.54 194.295 8.228 194.295 9.028V17.092C195.127 16.356 196.071 15.796 197.127 15.412C198.215 14.996 199.399 14.788 200.679 14.788C202.247 14.788 203.719 15.012 205.095 15.46C206.503 15.876 207.719 16.596 208.743 17.62C209.767 18.644 210.583 20.004 211.191 21.7C211.799 23.396 212.103 25.508 212.103 28.036V44.788H202.215ZM215.406 27.988C215.406 25.396 215.822 23.252 216.654 21.556C217.486 19.86 218.574 18.5 219.918 17.476C221.262 16.452 222.75 15.732 224.382 15.316C226.046 14.9 227.694 14.692 229.326 14.692C230.926 14.692 232.542 14.9 234.174 15.316C235.838 15.732 237.342 16.452 238.686 17.476C240.03 18.5 241.118 19.86 241.95 21.556C242.814 23.252 243.246 25.396 243.246 27.988V32.404C243.246 34.996 242.814 37.14 241.95 38.836C241.118 40.532 240.03 41.892 238.686 42.916C237.342 43.94 235.838 44.66 234.174 45.076C232.542 45.492 230.926 45.7 229.326 45.7C227.726 45.7 226.094 45.492 224.43 45.076C222.798 44.66 221.31 43.94 219.966 42.916C218.622 41.892 217.518 40.532 216.654 38.836C215.822 37.14 215.406 34.996 215.406 32.404V27.988ZM233.598 27.556C233.598 26.692 233.47 25.972 233.214 25.396C232.958 24.788 232.622 24.292 232.206 23.908C231.822 23.524 231.374 23.252 230.862 23.092C230.35 22.9 229.838 22.804 229.326 22.804C228.814 22.804 228.302 22.9 227.79 23.092C227.278 23.252 226.814 23.524 226.398 23.908C226.014 24.292 225.694 24.788 225.438 25.396C225.182 25.972 225.054 26.692 225.054 27.556V32.836C225.054 33.7 225.182 34.436 225.438 35.044C225.694 35.62 226.014 36.1 226.398 36.484C226.814 36.868 227.278 37.156 227.79 37.348C228.302 37.508 228.814 37.588 229.326 37.588C229.838 37.588 230.35 37.508 230.862 37.348C231.374 37.156 231.822 36.868 232.206 36.484C232.622 36.1 232.958 35.62 233.214 35.044C233.47 34.436 233.598 33.7 233.598 32.836V27.556ZM246.705 53.236V19.588C246.705 18.788 246.833 18.1 247.089 17.524C247.377 16.916 247.745 16.42 248.193 16.036C248.641 15.62 249.153 15.316 249.729 15.124C250.305 14.9 250.913 14.788 251.553 14.788C252.481 14.788 253.345 15.012 254.145 15.46C254.977 15.908 255.601 16.564 256.017 17.428C256.945 16.564 258.017 15.908 259.233 15.46C260.481 15.012 261.713 14.788 262.929 14.788C264.497 14.788 265.985 15.012 267.393 15.46C268.833 15.876 270.081 16.596 271.137 17.62C272.225 18.644 273.073 20.004 273.681 21.7C274.321 23.396 274.641 25.508 274.641 28.036V32.356C274.641 34.884 274.321 36.996 273.681 38.692C273.073 40.388 272.225 41.748 271.137 42.772C270.081 43.796 268.833 44.516 267.393 44.932C265.985 45.38 264.497 45.604 262.929 45.604C261.713 45.604 260.561 45.428 259.473 45.076C258.385 44.756 257.377 44.276 256.449 43.636V53.236H246.705ZM264.753 27.364C264.753 26.564 264.609 25.892 264.321 25.348C264.065 24.772 263.729 24.308 263.313 23.956C262.897 23.604 262.449 23.364 261.969 23.236C261.489 23.076 261.041 22.996 260.625 22.996C260.209 22.996 259.745 23.076 259.233 23.236C258.753 23.364 258.305 23.604 257.889 23.956C257.473 24.308 257.121 24.772 256.833 25.348C256.577 25.892 256.449 26.564 256.449 27.364V33.268C256.481 34.036 256.641 34.692 256.929 35.236C257.217 35.748 257.553 36.164 257.937 36.484C258.353 36.804 258.801 37.044 259.281 37.204C259.761 37.332 260.209 37.396 260.625 37.396C261.041 37.396 261.489 37.332 261.969 37.204C262.449 37.044 262.897 36.788 263.313 36.436C263.729 36.084 264.065 35.636 264.321 35.092C264.609 34.548 264.753 33.86 264.753 33.028V27.364Z" fill="#DEDEDE"/>
<path d="M0 16.6802C0 14.8953 0.515752 13.4641 1.55257 12.3869C2.5894 11.3096 3.99309 10.7656 5.76367 10.7656H13.9147C15.6853 10.7656 17.089 11.3043 18.1258 12.3869C19.1626 13.4641 19.6784 14.9005 19.6784 16.6802V21.7287C19.6784 23.4872 19.1573 24.9131 18.1258 26.0062C17.089 27.0993 15.6853 27.6433 13.9147 27.6433H5.76367C3.99309 27.6433 2.5894 27.0993 1.55257 26.0062C0.515752 24.9131 0 23.4872 0 21.7287V16.6802V16.6802ZM28.7811 37.397C28.7811 38.1258 28.611 38.638 28.2707 38.9391C27.9304 39.2401 27.3934 39.3932 26.6596 39.3932H8.98579V40.4124H29.0842V43.3855C29.0842 44.1143 28.8928 44.6477 28.5153 44.9856C28.1378 45.3236 27.5795 45.4926 26.8457 45.4926H3.5252C2.79144 45.4926 2.23316 45.3236 1.85565 44.9856C1.47814 44.6477 1.28672 44.1143 1.28672 43.3855V34.5718H21.0448V33.5948H3.3391C2.60535 33.5948 2.06833 33.4417 1.72804 33.1407C1.38775 32.8396 1.2176 32.3274 1.2176 31.5986V28.5463H28.7865V37.397H28.7811ZM7.69907 19.8065C7.69907 20.5828 7.82668 21.095 8.07658 21.3326C8.32648 21.5703 8.65614 21.6917 9.06023 21.6917H10.6128C11.0169 21.6917 11.3466 21.5703 11.5965 21.3326C11.8517 21.095 11.974 20.588 11.974 19.8065V18.6024C11.974 17.7997 11.8464 17.2822 11.5965 17.0604C11.3412 16.8333 11.0169 16.7224 10.6128 16.7224H9.06023C8.65614 16.7224 8.32648 16.8333 8.07658 17.0604C7.82136 17.2875 7.69907 17.7997 7.69907 18.6024V19.8065ZM28.7439 16.0782H33.7472V20.3715C33.7472 21.1478 33.5133 21.7129 33.0454 22.0667C32.5775 22.4205 31.9288 22.5948 31.094 22.5948H28.7439V25.0028C28.7439 25.7791 28.4781 26.4023 27.9464 26.867C27.4147 27.3317 26.7075 27.5641 25.8249 27.5641H21.0448V10.8765H28.7439V16.0782V16.0782Z" fill="#FDCB2A"/>
<path d="M45.2893 39.5379C44.63 40.969 43.2263 42.2892 41.0782 43.4932C38.9302 44.6973 36.9309 45.3151 35.0859 45.3363V39.1576C36.681 38.883 38.106 37.9219 39.3715 36.2743C40.6369 34.6319 41.2696 31.9968 41.2696 28.3847V19.0851H37.4414C36.7076 19.0851 36.16 18.9214 35.7931 18.5939C35.4262 18.2665 35.2454 17.7384 35.2454 17.0097V13.2075H41.275V9.28906H49.2027V13.2075H54.9291V17.0097C54.9291 17.7384 54.743 18.2665 54.3815 18.5939C54.0146 18.9214 53.4669 19.0851 52.7332 19.0851H49.208V28.39C49.208 32.0073 49.8141 34.6372 51.0264 36.2796C52.2387 37.9219 53.5945 38.883 55.0833 39.1629V45.3415C53.3127 45.3151 51.4039 44.7026 49.3569 43.4985C47.2992 42.2892 45.9486 40.969 45.2893 39.5379ZM63.7235 24.1705H68.9927V28.316C68.9927 29.1715 68.7215 29.7841 68.1792 30.1643C67.6368 30.5393 66.9084 30.7294 65.9992 30.7294H63.7235V40.5993C63.7235 41.9776 63.2503 43.1394 62.2985 44.0847C61.3521 45.0247 60.1824 45.5 58.7893 45.5H56.0191V10.8786H63.7182V24.1705H63.7235Z" fill="#FDCB2A"/>
<path d="M99.7321 22.5919H105.001V26.7374C105.001 27.5929 104.73 28.2054 104.188 28.5804C103.645 28.9553 102.917 29.1454 102.008 29.1454H99.7321V40.5944C99.7321 41.9727 99.2589 43.1344 98.3071 44.0797C97.3607 45.0197 96.1909 45.495 94.7979 45.495H92.0277V44.1748C90.7356 44.6501 89.4755 44.9669 88.2366 45.1148C86.9712 45.289 85.8493 45.3788 84.8603 45.3788H74.4708C73.6095 45.3788 72.9555 45.157 72.4982 44.7187C72.0409 44.2804 71.8176 43.6309 71.8176 42.7806V10.9898H90.2837L90.3209 14.792C90.3209 15.5208 90.1295 16.0542 89.752 16.3921C89.3745 16.7301 88.8162 16.8991 88.0824 16.8991L79.5114 16.8621V39.5382H85.0464C86.0832 39.5382 87.2105 39.4484 88.4227 39.2741C89.5872 39.1474 90.7888 38.8728 92.0277 38.445V10.8789H99.7268V22.5919H99.7321Z" fill="#FDCB2A"/>
</svg>
