<svg width="277" height="53" viewBox="0 0 277 53" fill="none" xmlns="http://www.w3.org/2000/svg">
<path d="M0 16.1793C0 14.3943 0.515752 12.9632 1.55257 11.8859C2.5894 10.8086 3.99309 10.2647 5.76367 10.2647H13.9147C15.6853 10.2647 17.089 10.8034 18.1258 11.8859C19.1626 12.9632 19.6784 14.3996 19.6784 16.1793V21.2278C19.6784 22.9863 19.1573 24.4122 18.1258 25.5053C17.089 26.5984 15.6853 27.1424 13.9147 27.1424H5.76367C3.99309 27.1424 2.5894 26.5984 1.55257 25.5053C0.515752 24.4122 0 22.9863 0 21.2278V16.1793V16.1793ZM28.7811 36.8961C28.7811 37.6249 28.611 38.1371 28.2707 38.4381C27.9304 38.7391 27.3934 38.8923 26.6596 38.8923H8.98579V39.9115H29.0842V42.8846C29.0842 43.6134 28.8928 44.1468 28.5153 44.4847C28.1378 44.8227 27.5795 44.9917 26.8457 44.9917H3.5252C2.79144 44.9917 2.23316 44.8227 1.85565 44.4847C1.47814 44.1468 1.28672 43.6134 1.28672 42.8846V34.0709H21.0448V33.0939H3.3391C2.60535 33.0939 2.06833 32.9408 1.72804 32.6397C1.38775 32.3387 1.2176 31.8265 1.2176 31.0977V28.0454H28.7865V36.8961H28.7811ZM7.69907 19.3056C7.69907 20.0818 7.82668 20.5941 8.07658 20.8317C8.32648 21.0694 8.65614 21.1908 9.06023 21.1908H10.6128C11.0169 21.1908 11.3466 21.0694 11.5965 20.8317C11.8517 20.5941 11.974 20.0871 11.974 19.3056V18.1015C11.974 17.2988 11.8464 16.7813 11.5965 16.5595C11.3412 16.3324 11.0169 16.2215 10.6128 16.2215H9.06023C8.65614 16.2215 8.32648 16.3324 8.07658 16.5595C7.82136 16.7866 7.69907 17.2988 7.69907 18.1015V19.3056ZM28.7439 15.5773H33.7472V19.8706C33.7472 20.6469 33.5133 21.2119 33.0454 21.5658C32.5775 21.9196 31.9288 22.0939 31.094 22.0939H28.7439V24.5019C28.7439 25.2782 28.4781 25.9014 27.9464 26.3661C27.4147 26.8308 26.7075 27.0631 25.8249 27.0631H21.0448V10.3756H28.7439V15.5773V15.5773Z" fill="#AAAAAA"/>
<path d="M45.2894 39.0379C44.6301 40.469 43.2264 41.7892 41.0783 42.9933C38.9302 44.1973 36.931 44.8152 35.086 44.8363V38.6577C36.6811 38.3831 38.1061 37.422 39.3715 35.7743C40.637 34.132 41.2697 31.4968 41.2697 27.8847V18.5851H37.4414C36.7077 18.5851 36.16 18.4214 35.7931 18.094C35.4263 17.7666 35.2455 17.2385 35.2455 16.5097V12.7075H41.275V8.78909H49.2027V12.7075H54.9292V16.5097C54.9292 17.2385 54.7431 17.7666 54.3815 18.094C54.0146 18.4214 53.467 18.5851 52.7332 18.5851H49.208V27.89C49.208 31.5074 49.8142 34.1373 51.0265 35.7796C52.2387 37.422 53.5946 38.3831 55.0834 38.663V44.8416C53.3128 44.8152 51.404 44.2026 49.3569 42.9985C47.2992 41.7892 45.9487 40.469 45.2894 39.0379ZM63.7235 23.6706H68.9927V27.8161C68.9927 28.6716 68.7216 29.2841 68.1792 29.6644C67.6369 30.0393 66.9084 30.2294 65.9992 30.2294H63.7235V40.0994C63.7235 41.4777 63.2503 42.6394 62.2986 43.5847C61.3521 44.5247 60.1824 45 58.7893 45H56.0192V10.3786H63.7182V23.6706H63.7235Z" fill="#AAAAAA"/>
<path d="M99.732 22.0918H105.001V26.2373C105.001 27.0928 104.73 27.7053 104.188 28.0803C103.645 28.4552 102.917 28.6453 102.008 28.6453H99.732V40.0943C99.732 41.4726 99.2588 42.6344 98.3071 43.5796C97.3606 44.5196 96.1909 44.9949 94.7978 44.9949H92.0276V43.6747C90.7356 44.15 89.4755 44.4668 88.2366 44.6147C86.9711 44.789 85.8492 44.8787 84.8603 44.8787H74.4708C73.6094 44.8787 72.9554 44.6569 72.4982 44.2186C72.0409 43.7803 71.8176 43.1308 71.8176 42.2805V10.4897H90.2836L90.3209 14.2919C90.3209 15.0207 90.1295 15.5541 89.7519 15.892C89.3744 16.23 88.8161 16.399 88.0824 16.399L79.5113 16.362V39.0381H85.0464C86.0832 39.0381 87.2104 38.9483 88.4227 38.774C89.5871 38.6473 90.7888 38.3727 92.0276 37.9449V10.3788H99.7267V22.0918H99.732Z" fill="#AAAAAA"/>
<path d="M120.115 10.9071L115.001 17.7257V41.5907C115.001 43.4743 116.527 45 118.411 45H142.276C144.159 45 145.685 43.4743 145.685 41.5907V17.7257L140.571 10.9071H120.115Z" stroke="#AAAAAA" stroke-width="2" stroke-linecap="round" stroke-linejoin="round"/>
<path d="M115.001 17.7257H145.685" stroke="#AAAAAA" stroke-width="2" stroke-linecap="round" stroke-linejoin="round"/>
<path d="M137.162 24.5443C137.162 28.3115 134.11 31.3628 130.343 31.3628C126.576 31.3628 123.524 28.3115 123.524 24.5443" stroke="#777777" stroke-width="2" stroke-linecap="round" stroke-linejoin="round"/>
<path d="M167.301 23.456C167.237 24.032 167.573 24.464 168.309 24.752C169.077 25.04 170.357 25.344 172.149 25.664C172.469 25.728 172.773 25.792 173.061 25.856C173.381 25.92 173.685 25.984 173.973 26.048C176.853 26.784 178.965 28.048 180.309 29.84C181.653 31.6 182.149 33.936 181.797 36.848C181.605 38.256 181.141 39.488 180.405 40.544C179.701 41.568 178.773 42.416 177.621 43.088C176.469 43.76 175.141 44.256 173.637 44.576C172.165 44.928 170.597 45.104 168.933 45.104C168.101 45.104 167.237 45.056 166.341 44.96C165.477 44.896 164.613 44.768 163.749 44.576C162.885 44.384 162.053 44.128 161.253 43.808C160.453 43.456 159.749 43.024 159.141 42.512C158.309 41.808 157.733 40.944 157.413 39.92C157.125 38.864 157.317 37.824 157.989 36.8C158.341 36.288 158.773 35.92 159.285 35.696C159.829 35.472 160.421 35.344 161.061 35.312C161.829 35.28 162.437 35.392 162.885 35.648C163.333 35.904 163.765 36.16 164.181 36.416C164.693 36.736 165.429 36.992 166.389 37.184C167.349 37.376 168.293 37.472 169.221 37.472C170.149 37.472 170.853 37.312 171.333 36.992C171.845 36.672 172.133 36.288 172.197 35.84C172.261 35.264 171.765 34.816 170.709 34.496C169.685 34.144 168.245 33.776 166.389 33.392C166.037 33.328 165.685 33.264 165.333 33.2C165.013 33.104 164.709 33.008 164.421 32.912C162.533 32.336 161.061 31.568 160.005 30.608C158.949 29.616 158.213 28.528 157.797 27.344C157.381 26.16 157.237 24.928 157.365 23.648C157.493 22.368 157.813 21.168 158.325 20.048C158.805 19.056 159.429 18.192 160.197 17.456C160.997 16.72 161.893 16.128 162.885 15.68C163.909 15.2 164.997 14.848 166.149 14.624C167.301 14.4 168.485 14.288 169.701 14.288C171.621 14.288 173.269 14.464 174.645 14.816C176.021 15.168 177.125 15.584 177.957 16.064C178.949 16.608 179.733 17.36 180.309 18.32C180.885 19.248 181.013 20.256 180.693 21.344C180.405 22.272 179.925 22.912 179.253 23.264C178.581 23.616 177.813 23.792 176.949 23.792C176.629 23.792 176.261 23.744 175.845 23.648C175.461 23.52 175.157 23.376 174.933 23.216C174.645 23.024 174.293 22.864 173.877 22.736C173.461 22.576 173.013 22.432 172.533 22.304C172.085 22.176 171.621 22.08 171.141 22.016C170.661 21.952 170.229 21.92 169.845 21.92C169.077 21.92 168.469 22.08 168.021 22.4C167.573 22.688 167.333 23.04 167.301 23.456ZM202.215 44.288V26.912C202.215 26.112 202.087 25.44 201.831 24.896C201.575 24.32 201.255 23.856 200.871 23.504C200.487 23.152 200.055 22.912 199.575 22.784C199.127 22.624 198.695 22.544 198.279 22.544C197.863 22.544 197.415 22.624 196.935 22.784C196.487 22.912 196.071 23.136 195.687 23.456C195.303 23.776 194.983 24.208 194.727 24.752C194.471 25.264 194.327 25.904 194.295 26.672V44.288H184.551V8.528C184.551 7.728 184.679 7.04 184.935 6.464C185.223 5.856 185.591 5.36 186.039 4.976C186.487 4.56 186.999 4.256 187.575 4.064C188.183 3.84 188.807 3.728 189.447 3.728C190.087 3.728 190.695 3.84 191.271 4.064C191.847 4.256 192.359 4.56 192.807 4.976C193.255 5.36 193.607 5.856 193.863 6.464C194.151 7.04 194.295 7.728 194.295 8.528V16.592C195.127 15.856 196.071 15.296 197.127 14.912C198.215 14.496 199.399 14.288 200.679 14.288C202.247 14.288 203.719 14.512 205.095 14.96C206.503 15.376 207.719 16.096 208.743 17.12C209.767 18.144 210.583 19.504 211.191 21.2C211.799 22.896 212.103 25.008 212.103 27.536V44.288H202.215ZM215.406 27.488C215.406 24.896 215.822 22.752 216.654 21.056C217.486 19.36 218.574 18 219.918 16.976C221.262 15.952 222.75 15.232 224.382 14.816C226.046 14.4 227.694 14.192 229.326 14.192C230.926 14.192 232.542 14.4 234.174 14.816C235.838 15.232 237.342 15.952 238.686 16.976C240.03 18 241.118 19.36 241.95 21.056C242.814 22.752 243.246 24.896 243.246 27.488V31.904C243.246 34.496 242.814 36.64 241.95 38.336C241.118 40.032 240.03 41.392 238.686 42.416C237.342 43.44 235.838 44.16 234.174 44.576C232.542 44.992 230.926 45.2 229.326 45.2C227.726 45.2 226.094 44.992 224.43 44.576C222.798 44.16 221.31 43.44 219.966 42.416C218.622 41.392 217.518 40.032 216.654 38.336C215.822 36.64 215.406 34.496 215.406 31.904V27.488ZM233.598 27.056C233.598 26.192 233.47 25.472 233.214 24.896C232.958 24.288 232.622 23.792 232.206 23.408C231.822 23.024 231.374 22.752 230.862 22.592C230.35 22.4 229.838 22.304 229.326 22.304C228.814 22.304 228.302 22.4 227.79 22.592C227.278 22.752 226.814 23.024 226.398 23.408C226.014 23.792 225.694 24.288 225.438 24.896C225.182 25.472 225.054 26.192 225.054 27.056V32.336C225.054 33.2 225.182 33.936 225.438 34.544C225.694 35.12 226.014 35.6 226.398 35.984C226.814 36.368 227.278 36.656 227.79 36.848C228.302 37.008 228.814 37.088 229.326 37.088C229.838 37.088 230.35 37.008 230.862 36.848C231.374 36.656 231.822 36.368 232.206 35.984C232.622 35.6 232.958 35.12 233.214 34.544C233.47 33.936 233.598 33.2 233.598 32.336V27.056ZM246.705 52.736V19.088C246.705 18.288 246.833 17.6 247.089 17.024C247.377 16.416 247.745 15.92 248.193 15.536C248.641 15.12 249.153 14.816 249.729 14.624C250.305 14.4 250.913 14.288 251.553 14.288C252.481 14.288 253.345 14.512 254.145 14.96C254.977 15.408 255.601 16.064 256.017 16.928C256.945 16.064 258.017 15.408 259.233 14.96C260.481 14.512 261.713 14.288 262.929 14.288C264.497 14.288 265.985 14.512 267.393 14.96C268.833 15.376 270.081 16.096 271.137 17.12C272.225 18.144 273.073 19.504 273.681 21.2C274.321 22.896 274.641 25.008 274.641 27.536V31.856C274.641 34.384 274.321 36.496 273.681 38.192C273.073 39.888 272.225 41.248 271.137 42.272C270.081 43.296 268.833 44.016 267.393 44.432C265.985 44.88 264.497 45.104 262.929 45.104C261.713 45.104 260.561 44.928 259.473 44.576C258.385 44.256 257.377 43.776 256.449 43.136V52.736H246.705ZM264.753 26.864C264.753 26.064 264.609 25.392 264.321 24.848C264.065 24.272 263.729 23.808 263.313 23.456C262.897 23.104 262.449 22.864 261.969 22.736C261.489 22.576 261.041 22.496 260.625 22.496C260.209 22.496 259.745 22.576 259.233 22.736C258.753 22.864 258.305 23.104 257.889 23.456C257.473 23.808 257.121 24.272 256.833 24.848C256.577 25.392 256.449 26.064 256.449 26.864V32.768C256.481 33.536 256.641 34.192 256.929 34.736C257.217 35.248 257.553 35.664 257.937 35.984C258.353 36.304 258.801 36.544 259.281 36.704C259.761 36.832 260.209 36.896 260.625 36.896C261.041 36.896 261.489 36.832 261.969 36.704C262.449 36.544 262.897 36.288 263.313 35.936C263.729 35.584 264.065 35.136 264.321 34.592C264.609 34.048 264.753 33.36 264.753 32.528V26.864Z" fill="#777777"/>
<a href="https://en.dict.naver.com/#/entry/enko/a8527bf0ddec45f09844fe6fab0da063">
<rect fill="black" fill-opacity="0" y="0.0599995" width="120.972" height="50.88"/>
</a>
</svg>
