<svg width="41" height="50" viewBox="0 0 41 50" fill="none" xmlns="http://www.w3.org/2000/svg">
<path d="M6.58813 28.1176V22H26.4705V44.9412H15.7646" stroke="#222222" stroke-width="2" stroke-miterlimit="10" stroke-linejoin="round"/>
<path d="M30.2947 25.4868H34.1182L37.177 33.7151H30.2947V25.4868Z" fill="#DEDEDE"/>
<path d="M35.6464 44.9409H38.7053V35.9633L36.4111 33.7151L33.3523 25.4868H26.47V44.9409H29.5288" stroke="#222222" stroke-width="2" stroke-miterlimit="10" stroke-linejoin="round"/>
<path d="M9.64696 44.9414H6.58813V41.8826" stroke="#222222" stroke-width="2" stroke-miterlimit="10" stroke-linejoin="round"/>
<path d="M32.5881 48.0002C34.2775 48.0002 35.6469 46.6307 35.6469 44.9414C35.6469 43.2521 34.2775 41.8826 32.5881 41.8826C30.8988 41.8826 29.5293 43.2521 29.5293 44.9414C29.5293 46.6307 30.8988 48.0002 32.5881 48.0002Z" fill="#DEDEDE" stroke="#222222" stroke-width="2" stroke-miterlimit="10" stroke-linejoin="round"/>
<path d="M12.7065 48.0002C14.3959 48.0002 15.7654 46.6307 15.7654 44.9414C15.7654 43.2521 14.3959 41.8826 12.7065 41.8826C11.0172 41.8826 9.64771 43.2521 9.64771 44.9414C9.64771 46.6307 11.0172 48.0002 12.7065 48.0002Z" fill="#DEDEDE" stroke="#222222" stroke-width="2" stroke-miterlimit="10" stroke-linejoin="round"/>
<path d="M11.9417 31.1765H5.05933" stroke="#222222" stroke-width="2" stroke-miterlimit="10" stroke-linejoin="round"/>
<path d="M10.4118 35.0002H2" stroke="#222222" stroke-width="2" stroke-miterlimit="10" stroke-linejoin="round"/>
<path d="M8.88175 38.8232H3.52881" stroke="#222222" stroke-width="2" stroke-miterlimit="10" stroke-linejoin="round"/>
<path d="M30.2947 25.4868V33.7151H36.4123" stroke="#222222" stroke-width="2" stroke-miterlimit="10" stroke-linejoin="round"/>
<path d="M16.4315 30L20.0106 17.445L13.9141 18.008L28.15 0L24.5789 12.555L30.6755 11.9839L16.4315 30Z" fill="#FDCB2A"/>
</svg>
