<svg width="41" height="50" viewBox="0 0 41 50" fill="none" xmlns="http://www.w3.org/2000/svg">
<path d="M6.58823 28.1176V22H26.4706V44.9412H15.7647" stroke="white" stroke-width="2" stroke-miterlimit="10" stroke-linejoin="round"/>
<path d="M30.2947 25.4868H34.1182L37.1771 33.7151H30.2947V25.4868Z" fill="#DEDEDE"/>
<path d="M35.6465 44.9409H38.7053V35.9633L36.4112 33.7151L33.3523 25.4868H26.47V44.9409H29.5288" stroke="white" stroke-width="2" stroke-miterlimit="10" stroke-linejoin="round"/>
<path d="M9.64705 44.9414H6.58823V41.8826" stroke="white" stroke-width="2" stroke-miterlimit="10" stroke-linejoin="round"/>
<path d="M32.5882 48.0002C34.2776 48.0002 35.6471 46.6307 35.6471 44.9414C35.6471 43.2521 34.2776 41.8826 32.5882 41.8826C30.8989 41.8826 29.5294 43.2521 29.5294 44.9414C29.5294 46.6307 30.8989 48.0002 32.5882 48.0002Z" fill="#DEDEDE" stroke="white" stroke-width="2" stroke-miterlimit="10" stroke-linejoin="round"/>
<path d="M12.7065 48.0002C14.3958 48.0002 15.7653 46.6307 15.7653 44.9414C15.7653 43.2521 14.3958 41.8826 12.7065 41.8826C11.0171 41.8826 9.64764 43.2521 9.64764 44.9414C9.64764 46.6307 11.0171 48.0002 12.7065 48.0002Z" fill="#DEDEDE" stroke="white" stroke-width="2" stroke-miterlimit="10" stroke-linejoin="round"/>
<path d="M11.9418 31.1765H5.05942" stroke="white" stroke-width="2" stroke-miterlimit="10" stroke-linejoin="round"/>
<path d="M10.4118 35.0002H2" stroke="white" stroke-width="2" stroke-miterlimit="10" stroke-linejoin="round"/>
<path d="M8.88175 38.8232H3.52881" stroke="white" stroke-width="2" stroke-miterlimit="10" stroke-linejoin="round"/>
<path d="M30.2947 25.4868V33.7151H36.4124" stroke="white" stroke-width="2" stroke-miterlimit="10" stroke-linejoin="round"/>
<path d="M16.4315 30L20.0106 17.445L13.9141 18.008L28.15 0L24.5789 12.555L30.6755 11.9839L16.4315 30Z" fill="#FDCB2A"/>
</svg>
