<svg width="77" height="89" viewBox="0 0 77 89" fill="none" xmlns="http://www.w3.org/2000/svg">
<path d="M76.3912 65.9337V22.1843L38.6566 0.30957L0.922119 22.1843V65.9337L38.6566 87.8084L76.3912 65.9337Z" fill="url(#paint0_linear_1_10216)"/>
<path d="M38.6567 88.1179L38.5239 88.0432L0.656494 66.0884V22.0295L38.6567 0L38.7896 0.0747124L76.657 22.0295V66.0884L38.6567 88.1179ZM1.18797 65.7789L38.6567 87.4988L76.1255 65.7789V22.339L38.6567 0.619045L1.18797 22.339V65.7789Z" fill="url(#paint1_linear_1_10216)"/>
<path d="M38.6568 84.8785L38.5346 84.8091L3.56372 64.5354V23.8438L38.6568 3.50073L38.7791 3.57011L73.7499 23.8438V64.5301L38.6568 84.8785Z" fill="url(#paint2_linear_1_10216)"/>
<path d="M38.6568 82.0715L38.5452 82.0075L5.98193 63.1319V25.2474L38.6568 6.30786L38.7738 6.3719L71.3317 25.2474V63.1319L38.6568 82.0715Z" fill="url(#paint3_linear_1_10216)"/>
<path d="M68.7701 61.5203V26.5976L38.6569 9.1416L8.53833 26.5976V61.5203L38.6569 78.9763L68.7701 61.5203Z" fill="url(#paint4_radial_1_10216)"/>
<path opacity="0.07" d="M10.4089 27.6864V45.6654C17.6901 50.2121 27.2141 52.9712 37.6522 52.9712C49.0735 52.9712 59.416 49.6731 66.9044 44.3366V27.6864L38.6567 11.3083L10.4089 27.6864Z" fill="white"/>
<path d="M38.6567 79.2858L38.5239 79.2111L8.27246 61.675V26.4482L38.6567 8.8374L38.7896 8.91212L69.041 26.4482V61.675L38.6567 79.2858ZM8.80393 61.3655L38.6567 78.6721L68.5095 61.3655V26.7524L38.6567 9.45111L8.80393 26.7524V61.3655Z" fill="url(#paint5_linear_1_10216)"/>
<path d="M24.0465 57.5552C23.6532 57.1176 23.4565 56.4879 23.4565 55.6714V55.095H24.95V55.7888C24.95 56.4452 25.221 56.7707 25.7684 56.7707C26.0342 56.7707 26.2415 56.6907 26.3796 56.5306C26.5178 56.3705 26.5869 56.1143 26.5869 55.7568C26.5869 55.3352 26.4912 54.9616 26.2999 54.6361C26.1086 54.3159 25.7525 53.9263 25.237 53.4727C24.5833 52.8964 24.1315 52.3734 23.8711 51.9091C23.6107 51.4448 23.4831 50.9165 23.4831 50.3295C23.4831 49.529 23.6851 48.9153 24.089 48.4723C24.4929 48.0347 25.0775 47.8159 25.8429 47.8159C26.5975 47.8159 27.1715 48.0347 27.5595 48.4723C27.9475 48.9099 28.1388 49.5396 28.1388 50.3561V50.7724H26.6454V50.2547C26.6454 49.9079 26.5763 49.657 26.4434 49.4969C26.3105 49.3368 26.1139 49.2568 25.8535 49.2568C25.3273 49.2568 25.0616 49.577 25.0616 50.2227C25.0616 50.5909 25.1573 50.9325 25.3539 51.2473C25.5505 51.5622 25.9066 51.9518 26.4222 52.4001C27.0812 52.9764 27.5382 53.5047 27.788 53.9744C28.0378 54.444 28.1601 54.999 28.1601 55.634C28.1601 56.4612 27.9581 57.0963 27.5489 57.5392C27.1396 57.9821 26.5497 58.2009 25.7738 58.2009C25.0191 58.2116 24.4398 57.9928 24.0465 57.5552Z" fill="#EACA81" stroke="#020201" stroke-width="0.25" stroke-miterlimit="10"/>
<path d="M29.0796 47.9653H33.3898V49.4115H30.6581V52.0798H32.8265V53.5207H30.6581V56.6266H33.3898V58.0675H29.0796V47.9653Z" fill="#EACA81" stroke="#020201" stroke-width="0.25" stroke-miterlimit="10"/>
<path d="M34.2932 47.9653H35.8717V56.6266H38.4759V58.0675H34.2932V47.9653Z" fill="#EACA81" stroke="#020201" stroke-width="0.25" stroke-miterlimit="10"/>
<path d="M39.2412 47.9653H40.8197V56.6266H43.4239V58.0675H39.2412V47.9653Z" fill="#EACA81" stroke="#020201" stroke-width="0.25" stroke-miterlimit="10"/>
<path d="M44.1838 47.9653H48.4941V49.4115H45.7623V52.0798H47.9307V53.5207H45.7623V56.6266H48.4941V58.0675H44.1838V47.9653Z" fill="#EACA81" stroke="#020201" stroke-width="0.25" stroke-miterlimit="10"/>
<path d="M49.4031 47.9653H51.7469C52.56 47.9653 53.1553 48.1574 53.5273 48.5363C53.8993 48.9152 54.0853 49.5023 54.0853 50.2921V50.9111C54.0853 51.9624 53.7399 52.6242 53.049 52.9017V52.9284C53.4316 53.0458 53.7027 53.2806 53.8621 53.6381C54.0216 53.9957 54.1013 54.4706 54.1013 55.0683V56.8454C54.1013 57.1336 54.1119 57.3684 54.1279 57.5445C54.1491 57.7206 54.197 57.8967 54.2714 58.0728H52.661C52.6025 57.9074 52.5653 57.7527 52.5441 57.6086C52.5228 57.4645 52.5175 57.203 52.5175 56.8294V54.983C52.5175 54.5187 52.4431 54.1985 52.2943 54.017C52.1455 53.8356 51.8904 53.7449 51.5236 53.7449H50.9762V58.0728H49.4031V47.9653ZM51.5609 52.2933C51.8744 52.2933 52.1136 52.2133 52.273 52.0478C52.4325 51.8824 52.5122 51.6102 52.5122 51.226V50.4469C52.5122 50.084 52.4484 49.8171 52.3155 49.6517C52.188 49.4863 51.9807 49.4062 51.7044 49.4062H50.9869V52.2933H51.5609Z" fill="#EACA81" stroke="#020201" stroke-width="0.25" stroke-miterlimit="10"/>
<path d="M23.8765 29.9065H27.3736C28.5694 29.9065 29.441 30.184 29.9884 30.7443C30.5358 31.2993 30.8122 32.1585 30.8122 33.3166V33.9089C30.8122 34.6721 30.6899 35.2911 30.4455 35.7714C30.201 36.2517 29.8236 36.5986 29.3187 36.8067V36.8494C30.472 37.2443 31.046 38.2743 31.046 39.9393V41.2094C31.046 42.3514 30.7484 43.2213 30.1478 43.8243C29.5526 44.422 28.6757 44.7262 27.5224 44.7262H23.8765V29.9065ZM27.1025 35.9422C27.5649 35.9422 27.9157 35.8248 28.1442 35.5846C28.378 35.3445 28.4896 34.9442 28.4896 34.3786V33.5514C28.4896 33.0177 28.394 32.6282 28.2026 32.388C28.0113 32.1479 27.7137 32.0305 27.3045 32.0305H26.1884V35.9475H27.1025V35.9422ZM27.5224 42.6076C27.9316 42.6076 28.2292 42.5009 28.4259 42.2821C28.6225 42.0633 28.7235 41.6844 28.7235 41.1507V39.8592C28.7235 39.1815 28.6066 38.7119 28.378 38.4504C28.1442 38.1889 27.7615 38.0608 27.2301 38.0608H26.199V42.6129H27.5224V42.6076Z" fill="#EACA81" stroke="#020201" stroke-width="0.25" stroke-miterlimit="10"/>
<path d="M32.3906 29.9065H38.7151V32.0251H34.7078V35.9422H37.8914V38.0608H34.7078V42.6129H38.7151V44.7316H32.3906V29.9065Z" fill="#EACA81" stroke="#020201" stroke-width="0.25" stroke-miterlimit="10"/>
<path d="M40.5487 43.9737C39.9747 43.3333 39.6824 42.4101 39.6824 41.2093V40.3608H41.8774V41.3748C41.8774 42.3353 42.276 42.8156 43.0785 42.8156C43.4718 42.8156 43.7694 42.6982 43.9767 42.4688C44.1786 42.2339 44.2849 41.8604 44.2849 41.3374C44.2849 40.7184 44.1467 40.1687 43.8651 39.6991C43.5834 39.2241 43.0625 38.6584 42.3078 37.9967C41.3512 37.1482 40.6869 36.385 40.3042 35.702C39.9269 35.0189 39.7355 34.2451 39.7355 33.3859C39.7355 32.2172 40.0278 31.3099 40.6231 30.6642C41.213 30.0238 42.0687 29.7036 43.1954 29.7036C44.3062 29.7036 45.1459 30.0238 45.7146 30.6642C46.2833 31.3046 46.5703 32.2278 46.5703 33.4286V34.0423H44.3806V33.2791C44.3806 32.7722 44.2796 32.3986 44.083 32.1691C43.8863 31.9343 43.5993 31.8222 43.2167 31.8222C42.446 31.8222 42.0581 32.2972 42.0581 33.2418C42.0581 33.7754 42.2016 34.2771 42.4885 34.7467C42.7755 35.211 43.3017 35.7767 44.0564 36.4384C45.0237 37.2869 45.6933 38.0554 46.06 38.7438C46.4268 39.4376 46.6075 40.2487 46.6075 41.1773C46.6075 42.3887 46.3098 43.3226 45.7093 43.9683C45.114 44.6194 44.2424 44.9396 43.1051 44.9396C41.973 44.9343 41.1227 44.6141 40.5487 43.9737Z" fill="#EACA81" stroke="#020201" stroke-width="0.25" stroke-miterlimit="10"/>
<path d="M49.738 32.0251H47.3145V29.9065H54.4787V32.0251H52.0552V44.7209H49.738V32.0251Z" fill="#EACA81" stroke="#020201" stroke-width="0.25" stroke-miterlimit="10"/>
<path fill-rule="evenodd" clip-rule="evenodd" d="M31.838 19.3025L32.4226 19.6814L33.1029 19.4412L32.9275 20.119L33.3686 20.69L32.6724 20.7327L32.2632 21.3304L32.0081 20.674L31.3171 20.4712L31.8592 20.0283L31.838 19.3025Z" fill="#DFBD6B"/>
<path fill-rule="evenodd" clip-rule="evenodd" d="M45.8317 19.3025L45.7945 20.0069L46.3472 20.4712L45.6722 20.658L45.4012 21.3304L45.0185 20.7434L44.301 20.69L44.7368 20.1403L44.5614 19.4412L45.2152 19.6867L45.8317 19.3025Z" fill="#DFBD6B"/>
<path fill-rule="evenodd" clip-rule="evenodd" d="M42.4569 17.9043L42.6057 18.5874L43.2541 18.8969L42.6535 19.2491L42.5632 19.9696L42.0423 19.5053L41.3301 19.6387L41.6118 18.993L41.2664 18.3579L41.9626 18.4273L42.4569 17.9043Z" fill="#DFBD6B"/>
<path fill-rule="evenodd" clip-rule="evenodd" d="M38.8321 17.4241L39.1563 18.0485L39.8631 18.1765L39.3742 18.6728L39.4699 19.3933L38.8427 19.0784L38.1943 19.3933L38.3006 18.6995L37.801 18.1765L38.4919 18.0591L38.8321 17.4241Z" fill="#DFBD6B"/>
<path fill-rule="evenodd" clip-rule="evenodd" d="M35.2129 17.9043L35.6806 18.4219L36.3981 18.3579L36.0527 18.9663L36.3343 19.6387L35.6487 19.4946L35.1013 19.9696L35.0269 19.2705L34.4104 18.8969L35.0482 18.6087L35.2129 17.9043Z" fill="#DFBD6B"/>
<path fill-rule="evenodd" clip-rule="evenodd" d="M45.8317 66.9049L45.2417 66.5313L44.5614 66.7715L44.7421 66.0937L44.301 65.5227L44.9919 65.48L45.4012 64.8823L45.6563 65.5334L46.3472 65.7415L45.8104 66.1845L45.8317 66.9049Z" fill="#DFBD6B"/>
<path fill-rule="evenodd" clip-rule="evenodd" d="M31.838 66.9049L31.8699 66.2058L31.3171 65.7415L31.9921 65.5547L32.2632 64.8823L32.6511 65.4693L33.3686 65.5227L32.9328 66.067L33.1029 66.7715L32.4492 66.526L31.838 66.9049Z" fill="#DFBD6B"/>
<path fill-rule="evenodd" clip-rule="evenodd" d="M35.2129 68.3084L35.0641 67.6253L34.4104 67.3158L35.011 66.9636L35.1013 66.2432L35.6275 66.7074L36.3343 66.574L36.0527 67.2198L36.3981 67.8495L35.7072 67.7854L35.2129 68.3084Z" fill="#DFBD6B"/>
<path fill-rule="evenodd" clip-rule="evenodd" d="M38.8321 68.7888L38.5132 68.1644L37.801 68.0363L38.2953 67.54L38.1943 66.8196L38.8215 67.1344L39.4699 66.8196L39.3636 67.5133L39.8631 68.0363L39.1722 68.1537L38.8321 68.7888Z" fill="#DFBD6B"/>
<path fill-rule="evenodd" clip-rule="evenodd" d="M42.4569 68.3084L41.9838 67.7908L41.2664 67.8495L41.6118 67.2411L41.3301 66.574L42.0157 66.7181L42.5632 66.2432L42.6429 66.9423L43.2541 67.3158L42.6216 67.604L42.4569 68.3084Z" fill="#DFBD6B"/>
<defs>
<linearGradient id="paint0_linear_1_10216" x1="38.6553" y1="-14.287" x2="38.6553" y2="111.657" gradientUnits="userSpaceOnUse">
<stop stop-color="#AF8338"/>
<stop offset="0.0873" stop-color="#AF8338"/>
<stop offset="0.0975" stop-color="#AF8338"/>
<stop offset="0.1417" stop-color="#C09951"/>
<stop offset="0.2184" stop-color="#D9BB77"/>
<stop offset="0.2896" stop-color="#EBD392"/>
<stop offset="0.3524" stop-color="#F6E2A2"/>
<stop offset="0.4004" stop-color="#FAE7A8"/>
<stop offset="0.5212" stop-color="#AF8338"/>
<stop offset="0.8351" stop-color="#825428"/>
<stop offset="1" stop-color="#6F4022"/>
</linearGradient>
<linearGradient id="paint1_linear_1_10216" x1="38.6556" y1="98.3151" x2="38.6556" y2="-29.5911" gradientUnits="userSpaceOnUse">
<stop offset="0.1168" stop-color="#AF8338"/>
<stop offset="0.3895" stop-color="#AF8338"/>
<stop offset="0.4214" stop-color="#AF8338"/>
<stop offset="0.4381" stop-color="#AF8338"/>
<stop offset="0.451" stop-color="#BC9457"/>
<stop offset="0.4873" stop-color="#DDC0A8"/>
<stop offset="0.5131" stop-color="#F2DCDB"/>
<stop offset="0.5257" stop-color="#FAE7EF"/>
<stop offset="0.6175" stop-color="#E7D196"/>
<stop offset="1" stop-color="#AF8D60"/>
</linearGradient>
<linearGradient id="paint2_linear_1_10216" x1="3.5634" y1="44.1895" x2="73.7476" y2="44.1895" gradientUnits="userSpaceOnUse">
<stop stop-color="#AF8338"/>
<stop offset="0.0989" stop-color="#AF8338"/>
<stop offset="0.1104" stop-color="#AF8338"/>
<stop offset="0.5544" stop-color="#FAF4E7"/>
<stop offset="1" stop-color="#AF8338"/>
</linearGradient>
<linearGradient id="paint3_linear_1_10216" x1="38.6555" y1="90.8398" x2="38.6555" y2="-19.1369" gradientUnits="userSpaceOnUse">
<stop stop-color="#AF8338"/>
<stop offset="0.1084" stop-color="#AF8338"/>
<stop offset="0.1211" stop-color="#AF8338"/>
<stop offset="0.175" stop-color="#C09951"/>
<stop offset="0.2685" stop-color="#D9BB77"/>
<stop offset="0.3552" stop-color="#EBD392"/>
<stop offset="0.4318" stop-color="#F6E2A2"/>
<stop offset="0.4902" stop-color="#FAE7A8"/>
<stop offset="0.7853" stop-color="#AF8338"/>
<stop offset="0.9261" stop-color="#825428"/>
<stop offset="1" stop-color="#6F4022"/>
</linearGradient>
<radialGradient id="paint4_radial_1_10216" cx="0" cy="0" r="1" gradientUnits="userSpaceOnUse" gradientTransform="translate(42.662 43.4468) rotate(90) scale(40.8359 40.6685)">
<stop stop-color="#333333"/>
<stop offset="0.4359" stop-color="#1A1A1A"/>
<stop offset="1"/>
</radialGradient>
<linearGradient id="paint5_linear_1_10216" x1="8.27289" y1="44.0595" x2="69.0377" y2="44.0595" gradientUnits="userSpaceOnUse">
<stop stop-color="#AF8338"/>
<stop offset="0.0989" stop-color="#AF8338"/>
<stop offset="0.1104" stop-color="#AF8338"/>
<stop offset="0.1667" stop-color="#C09951"/>
<stop offset="0.2643" stop-color="#D9BB77"/>
<stop offset="0.3548" stop-color="#EBD392"/>
<stop offset="0.4348" stop-color="#F6E2A2"/>
<stop offset="0.4958" stop-color="#FAE7A8"/>
<stop offset="0.8976" stop-color="#AF8338"/>
<stop offset="0.9647" stop-color="#825428"/>
<stop offset="1" stop-color="#6F4022"/>
</linearGradient>
</defs>
</svg>
